<svg xmlns="http://www.w3.org/2000/svg" xmlns:xlink="http://www.w3.org/1999/xlink" xmlns:lucid="lucid" width="1846.71" height="1410.02"><g transform="translate(-18.71864777972172 -9.980314960629926)" lucid:page-tab-id="0_0"><path d="M0 0h1870.87v2581.67H0z" fill="#fff"/><path d="M940 35.98a6 6 0 0 1 6-6h648a6 6 0 0 1 6 6v78a6 6 0 0 1-6 6H946a6 6 0 0 1-6-6z" stroke="#000" stroke-opacity="0" fill="#fff" fill-opacity="0"/><use xlink:href="#a" transform="matrix(1,0,0,1,945,34.980314960629926) translate(36.420154197530906 44.99336888888889)"/><use xlink:href="#b" transform="matrix(1,0,0,1,945,34.980314960629926) translate(133.4840551851852 44.99336888888889)"/><use xlink:href="#c" transform="matrix(1,0,0,1,945,34.980314960629926) translate(185.5997166666667 44.99336888888889)"/><use xlink:href="#d" transform="matrix(1,0,0,1,945,34.980314960629926) translate(268.14655111111114 44.99336888888889)"/><use xlink:href="#e" transform="matrix(1,0,0,1,945,34.980314960629926) translate(303.25477061728395 44.99336888888889)"/><use xlink:href="#f" transform="matrix(1,0,0,1,945,34.980314960629926) translate(423.27871827160493 44.99336888888889)"/><use xlink:href="#g" transform="matrix(1,0,0,1,945,34.980314960629926) translate(594.2035101234568 44.99336888888889)"/><g class="lucid-layer" lucid:layer-id="6vcAAht3lpCe" display="block"><path d="M665.43 96.7a6 6 0 0 1 6-6h1168a6 6 0 0 1 6 6v708a6 6 0 0 1-6 6h-1168a6 6 0 0 1-6-6z" stroke="#3a414a" fill="#fff"/></g><g class="lucid-layer" lucid:layer-id="kwcAHK.~_7.E" display="block"><path d="M60 846a6 6 0 0 1 6-6h1168a6 6 0 0 1 6 6v548a6 6 0 0 1-6 6H66a6 6 0 0 1-6-6z" stroke="#3a414a" fill="#fff"/><use xlink:href="#h" transform="matrix(1,0,0,1,65,845) translate(565.1604938271605 275.59027777777777)"/><path d="M355.9 652.73a6 6 0 0 1 6-6h168a6 6 0 0 1 6 6v96c-30.05-17.03-48.77-17.03-60.1-17.03-18 0-41.95 17.03-59.95 17.03-11.16 0-30.06 0-59.94-17.03z" stroke="#3a414a" fill="#fff"/><path d="M365.9 661.73a6 6 0 0 1 6-6h168a6 6 0 0 1 6 6v96c-30.05-17.03-48.77-17.03-60.1-17.03-18 0-41.95 17.03-59.95 17.03-11.16 0-30.06 0-59.94-17.03z" stroke="#3a414a" fill="#fff"/><path d="M375.9 670.73a6 6 0 0 1 6-6h168a6 6 0 0 1 6 6v96c-30.05-17.03-48.77-17.03-60.1-17.03-18 0-41.95 17.03-59.95 17.03-11.16 0-30.06 0-59.94-17.03z" stroke="#3a414a" fill="#fff"/><use xlink:href="#i" transform="matrix(1,0,0,1,387.90803930523464,676.7322834645668) translate(19.9710012962963 36.55586888888889)"/><path d="M375.9 444.9a6 6 0 0 1 6-6h148a6 6 0 0 1 6 6v114c-26.7-20.04-43.35-20.04-53.43-20.04-16 0-37.28 20.04-53.28 20.04-9.93 0-26.73 0-53.3-20.04z" stroke="#3a414a" fill="#fff"/><use xlink:href="#j" transform="matrix(1,0,0,1,387.90803930523464,450.89763779527556) translate(20.652496358024692 41.24336888888889)"/><path d="M215.43 458.7v41.52a.05.05 0 0 1-.05.06.05.05 0 0 0-.05.05v25.64" stroke="#3a414a" fill="none"/><path d="M215.43 458.2l.5-.03v.54h-1v-.53z" stroke="#3a414a" stroke-width=".05" fill="#3a414a"/><path d="M215.33 540.74l-4.64-14.27h9.26z" stroke="#3a414a" fill="#3a414a"/><path d="M556.86 706.73h5.6m5.57 0h11.17m5.58 0h5.58l.94-.07.92-.22.87-.36.8-.5.7-.6.62-.72.5-.8.35-.87.22-.93v-5.04m0-5.05v-10.1m0-5.04v-10.1m0-5.03v-10.08m0-5.05v-10.1m0-5.04l.02-10.1m0-5.03v-10.1m0-5.04v-10.1m0-5.03l.02-10.1m0-5.04v-10.1m0-5.05v-10.1m0-5.03v-10.1m0-5.04l.02-10.1m0-5.04v-5.04l-.07-.94-.23-.92-.36-.87-.48-.8-.62-.72-.7-.6-.8-.5-.88-.36-.92-.23h-4.28m-4.3 0l-8.55-.03m-4.28 0l-8.58-.03m-4.28 0h-4.3" stroke="#3a414a" fill="none"/><path d="M556.88 707.23h-.52v-1h.52z" stroke="#3a414a" stroke-width=".05" fill="#3a414a"/><path d="M538 498.9l14.25-4.64v9.27z" stroke="#3a414a" fill="#3a414a"/><path d="M455.9 549.72l-.03.5-.1.46-.2.45-.25.4-.32.38-.37.32-.4.26-.46.18-.47.12h-5.02m-5 0h-10.05m-5 .02h-10.05m-5 0h-5.03l-.94.1-.9.2-.88.37-.8.5-.7.6-.63.72-.5.8-.36.86-.22.92v4.32m0 4.33l-.03 8.65m-.02 4.33v8.66m-.02 4.33v4.3l-.08.95-.22.92-.37.87-.5.8-.6.72-.72.6-.8.5-.88.36-.9.22h-5m-4.97 0l-9.97.02m-4.98 0l-9.96.02m-4.98 0h-9.96m-4.98.02h-9.96m-5 0h-4.97" stroke="#3a414a" fill="none"/><path d="M456.4 549.73h-1v-.26l1-.5z" stroke="#3a414a" stroke-width=".05" fill="#3a414a"/><path d="M307.6 602.8l14.27-4.62v9.27z" stroke="#3a414a" fill="#3a414a"/><path d="M151.97 548.6a7.8 7.8 0 0 1 7.54-5.8h156a4.6 4.6 0 0 1 4.47 5.8l-28.9 108.42a7.8 7.8 0 0 1-7.56 5.8h-156a4.6 4.6 0 0 1-4.44-5.8z" stroke="#3a414a" fill="#fff"/><use xlink:href="#k" transform="matrix(1,0,0,1,133.5116426247663,554.8149606299212) translate(28.577464691358024 38.49336888888889)"/><use xlink:href="#l" transform="matrix(1,0,0,1,133.5116426247663,554.8149606299212) translate(119.38505666666667 38.49336888888889)"/><use xlink:href="#m" transform="matrix(1,0,0,1,133.5116426247663,554.8149606299212) translate(34.12045314814815 64.73342222222223)"/><use xlink:href="#n" transform="matrix(1,0,0,1,133.5116426247663,554.8149606299212) translate(47.48344327160494 64.73342222222223)"/><use xlink:href="#o" transform="matrix(1,0,0,1,133.5116426247663,554.8149606299212) translate(127.60064314814815 64.73342222222223)"/><path d="M151.97 885.8a7.8 7.8 0 0 1 7.54-5.8h156a4.6 4.6 0 0 1 4.47 5.8l-28.9 108.4a7.8 7.8 0 0 1-7.56 5.8h-156a4.6 4.6 0 0 1-4.44-5.8z" stroke="#3a414a" fill="#fff"/><use xlink:href="#p" transform="matrix(1,0,0,1,133.5116426247664,892) translate(56.30566919753087 38.49336888888889)"/><use xlink:href="#q" transform="matrix(1,0,0,1,133.5116426247664,892) translate(97.60945685185186 38.49336888888889)"/><use xlink:href="#r" transform="matrix(1,0,0,1,133.5116426247664,892) translate(5.116690493827159 64.73342222222223)"/><path d="M221.5 663.77v199.4" stroke="#3a414a" fill="none"/><path d="M222 663.8h-1v-.52h1z" stroke="#3a414a" stroke-width=".05" fill="#3a414a"/><path d="M221.5 877.92l-4.62-14.26h9.27z" stroke="#3a414a" fill="#3a414a"/><path d="M216.05 1082.95a10.65 10.65 0 0 1 10.45 0l94.75 53.4a3.38 3.38 0 0 1 0 5.9l-94.75 53.4a10.65 10.65 0 0 1-10.45 0l-94.75-53.4a3.38 3.38 0 0 1 0-5.9z" stroke="#3a414a" fill="#fff"/><use xlink:href="#s" transform="matrix(1,0,0,1,128.07575049708197,1091.9999999999995) translate(80.27978895061727 26.399618888888888)"/><use xlink:href="#t" transform="matrix(1,0,0,1,128.07575049708197,1091.9999999999995) translate(13.525579197530854 52.639672222222224)"/><use xlink:href="#u" transform="matrix(1,0,0,1,128.07575049708197,1091.9999999999995) translate(79.06497166666666 52.639672222222224)"/><use xlink:href="#v" transform="matrix(1,0,0,1,128.07575049708197,1091.9999999999995) translate(142.17472956790124 52.639672222222224)"/><use xlink:href="#w" transform="matrix(1,0,0,1,128.07575049708197,1091.9999999999995) translate(166.41033438271606 52.639672222222224)"/><use xlink:href="#x" transform="matrix(1,0,0,1,128.07575049708197,1091.9999999999995) translate(75.34348160493826 78.87972555555555)"/><path d="M221.5 1000.96v39.7a.12.12 0 0 1-.1.1.12.12 0 0 0-.12.12v23.8" stroke="#3a414a" fill="none"/><path d="M222 1000.97h-1v-.5h1z" stroke="#3a414a" stroke-width=".05" fill="#3a414a"/><path d="M221.28 1079.46l-4.64-14.27h9.27z" stroke="#3a414a" fill="#3a414a"/><path d="M353.82 1139.8h-29.85v-1h29.85zm51.4-.72h-13.97v-1h13.96z" stroke="#3a414a" stroke-width=".05" fill="#3a414a"/><path d="M323.98 1139.8h-.56l.05-.5-.05-.5h.56z" fill="#3a414a"/><path d="M324 1139.82h-.6l.05-.53-.06-.53h.6zm-.55-1l.05.47-.05.47h.5v-.95z" stroke="#3a414a" stroke-width=".05" fill="#3a414a"/><path d="M419.98 1138.58l-14.27 4.64v-9.27z" fill="#3a414a"/><path d="M421.6 1138.58l-16.4 5.33v-10.64zm-15.4 3.95l12.16-3.95-12.15-3.94z" stroke="#3a414a" stroke-width=".05" fill="#3a414a"/><use xlink:href="#y" transform="matrix(1,0,0,1,353.8189813469512,1128.2703412073488) translate(0 14.222222222222223)"/><path d="M287.28 1278.58c24.3 0 44 17.9 44 40s-19.7 40-44 40h-132c-24.3 0-44-17.9-44-40s19.7-40 44-40z" stroke="#3a414a" fill="#fff"/><use xlink:href="#z" transform="matrix(1,0,0,1,123.27537060606325,1290.582677165354) translate(78.56292345679012 31.493368888888888)"/><path d="M221.78 1261.7h-1v-13.24h1zm0-34.57h-1V1198h1z" stroke="#3a414a" stroke-width=".05" fill="#3a414a"/><path d="M221.28 1197.5l.5-.02v.54h-1v-.54z" fill="#3a414a"/><path d="M221.28 1197.48l.52-.02v.6h-1.05v-.6zm-.48.52h.95v-.5l-.47.03-.48-.02z" stroke="#3a414a" stroke-width=".05" fill="#3a414a"/><path d="M221.28 1276.46l-4.64-14.26h9.27z" fill="#3a414a"/><path d="M221.28 1278.08l-5.33-16.38h10.65zm-3.95-15.38l3.95 12.15 3.94-12.15z" stroke="#3a414a" stroke-width=".05" fill="#3a414a"/><use xlink:href="#A" transform="matrix(1,0,0,1,198.58401258137187,1227.129131949028) translate(0 14.222222222222223)"/><path d="M436.53 1084.38a7.8 7.8 0 0 1 7.55-5.8h156a4.6 4.6 0 0 1 4.45 5.8l-28.9 108.4a7.8 7.8 0 0 1-7.55 5.8h-156a4.6 4.6 0 0 1-4.46-5.8z" stroke="#3a414a" fill="#fff"/><use xlink:href="#B" transform="matrix(1,0,0,1,418.0757504970821,1090.5826771653542) translate(41.45452790123457 38.49336888888889)"/><use xlink:href="#C" transform="matrix(1,0,0,1,418.0757504970821,1090.5826771653542) translate(35.45675216049383 64.73342222222223)"/><use xlink:href="#v" transform="matrix(1,0,0,1,418.0757504970821,1090.5826771653542) translate(102.02873932098765 64.73342222222223)"/><use xlink:href="#o" transform="matrix(1,0,0,1,418.0757504970821,1090.5826771653542) translate(126.26434413580246 64.73342222222223)"/><path d="M789.8 1082.95a10.65 10.65 0 0 1 10.46 0l94.75 53.4a3.38 3.38 0 0 1 0 5.9l-94.74 53.4a10.65 10.65 0 0 1-10.45 0l-94.74-53.4a3.38 3.38 0 0 1 0-5.9z" stroke="#3a414a" fill="#fff"/><use xlink:href="#D" transform="matrix(1,0,0,1,701.8342105391976,1092) translate(36.090810246913584 53.11836888888889)"/><path d="M591.05 1138.58h50.3a.35.35 0 0 1 .35.36.35.35 0 0 0 .35.35h34.4" stroke="#3a414a" fill="none"/><path d="M591.07 1139.08h-.65l.27-1h.37z" stroke="#3a414a" stroke-width=".05" fill="#3a414a"/><path d="M691.22 1139.3l-14.27 4.63v-9.27z" stroke="#3a414a" fill="#3a414a"/><path d="M979.83 1084.58a6 6 0 0 1 6-6h218a6 6 0 0 1 6 6v108a6 6 0 0 1-6 6h-218a6 6 0 0 1-6-6z" stroke="#3a414a" fill="#fff"/><use xlink:href="#E" transform="matrix(1,0,0,1,991.834210539198,1090.5826771653547) translate(2.6560923456790135 53.49336888888889)"/><path d="M919.58 1139.8h-21.85v-1h21.85zm43.4-.72h-5.96v-1H963z" stroke="#3a414a" stroke-width=".05" fill="#3a414a"/><path d="M897.74 1139.8h-.56l.05-.5-.05-.5h.56z" fill="#3a414a"/><path d="M897.77 1139.82h-.62l.06-.53-.05-.53h.62zm-.56-1l.06.47-.05.47h.52v-.95z" stroke="#3a414a" stroke-width=".05" fill="#3a414a"/><path d="M977.75 1138.58l-14.26 4.64v-9.27z" fill="#3a414a"/><path d="M979.37 1138.58L963 1143.9v-10.64zm-15.38 3.95l12.13-3.95-12.14-3.94z" stroke="#3a414a" stroke-width=".05" fill="#3a414a"/><use xlink:href="#y" transform="matrix(1,0,0,1,919.5846381320513,1128.2703412073492) translate(0 14.222222222222223)"/><path d="M1171.43 119.98c24.3 0 44 17.9 44 40s-19.7 40-44 40h-132c-24.3 0-44-17.9-44-40s19.7-40 44-40z" stroke="#3a414a" fill="#fff"/><use xlink:href="#F" transform="matrix(1,0,0,1,1007.4330708661414,131.98031496062993) translate(74.94884203703704 31.493368888888888)"/><path d="M861.43 681.4c24.3 0 44 17.9 44 40s-19.7 40-44 40h-132c-24.3 0-44-17.9-44-40s19.7-40 44-40z" stroke="#3a414a" fill="#fff"/><use xlink:href="#G" transform="matrix(1,0,0,1,697.4330708661415,693.3976377952755) translate(65.26067419753088 31.493368888888888)"/><path d="M1100.1 242.75a11.55 11.55 0 0 1 10.66 0l141.95 73.76a3.12 3.12 0 0 1 0 5.54l-141.94 73.76a11.55 11.55 0 0 1-10.65 0l-141.94-73.76a3.12 3.12 0 0 1 0-5.53z" stroke="#3a414a" fill="#fff"/><use xlink:href="#H" transform="matrix(1,0,0,1,964.8332608116509,251.98031496062993) translate(39.978869753086435 57.96915864107014)"/><use xlink:href="#I" transform="matrix(1,0,0,1,964.8332608116509,251.98031496062993) translate(44.534434567901236 84.20921197440347)"/><use xlink:href="#J" transform="matrix(1,0,0,1,964.8332608116509,251.98031496062993) translate(63.3641024691358 84.20921197440347)"/><path d="M1105.43 200.98v23.58" stroke="#3a414a" fill="none"/><path d="M1105.93 201h-1v-.52h1z" stroke="#3a414a" stroke-width=".05" fill="#3a414a"/><path d="M1105.43 239.33l-4.63-14.27h9.27z" stroke="#3a414a" fill="#3a414a"/><path d="M1100.25 467.03a10.3 10.3 0 0 1 10.37 0l104.63 60.88a3.5 3.5 0 0 1 0 6.05l-104.63 60.9a10.3 10.3 0 0 1-10.37 0l-104.63-60.9a3.5 3.5 0 0 1 0-6.04z" stroke="#3a414a" fill="#fff"/><use xlink:href="#K" transform="matrix(1,0,0,1,1002.4330708661419,476.0079897233426) translate(35.1878251234568 44.99336888888889)"/><use xlink:href="#L" transform="matrix(1,0,0,1,1002.4330708661419,476.0079897233426) translate(66.71233364197532 44.99336888888889)"/><use xlink:href="#M" transform="matrix(1,0,0,1,1002.4330708661419,476.0079897233426) translate(115.12280240740742 44.99336888888889)"/><use xlink:href="#N" transform="matrix(1,0,0,1,1002.4330708661419,476.0079897233426) translate(132.0695035185185 44.99336888888889)"/><use xlink:href="#O" transform="matrix(1,0,0,1,1002.4330708661419,476.0079897233426) translate(166.02364660493828 44.99336888888889)"/><use xlink:href="#P" transform="matrix(1,0,0,1,1002.4330708661419,476.0079897233426) translate(60.04713592592594 71.23342222222223)"/><use xlink:href="#Q" transform="matrix(1,0,0,1,1002.4330708661419,476.0079897233426) translate(72.19530876543212 71.23342222222223)"/><path d="M1288.03 483.85a6 6 0 0 1 6-6h218a6 6 0 0 1 6 6v108a6 6 0 0 1-6 6h-218a6 6 0 0 1-6-6z" stroke="#3a414a" fill="#fff"/><use xlink:href="#R" transform="matrix(1,0,0,1,1300.0328809206321,489.8543307086617) translate(13.862781790123464 26.493368888888888)"/><use xlink:href="#S" transform="matrix(1,0,0,1,1300.0328809206321,489.8543307086617) translate(69.68363598765433 26.493368888888888)"/><use xlink:href="#M" transform="matrix(1,0,0,1,1300.0328809206321,489.8543307086617) translate(150.9549122839506 26.493368888888888)"/><use xlink:href="#T" transform="matrix(1,0,0,1,1300.0328809206321,489.8543307086617) translate(167.9016133950617 26.493368888888888)"/><use xlink:href="#U" transform="matrix(1,0,0,1,1300.0328809206321,489.8543307086617) translate(178.77422808641973 26.493368888888888)"/><use xlink:href="#V" transform="matrix(1,0,0,1,1300.0328809206321,489.8543307086617) translate(54.43767907407408 52.733422222222224)"/><use xlink:href="#W" transform="matrix(1,0,0,1,1300.0328809206321,489.8543307086617) translate(102.96962956790124 52.733422222222224)"/><use xlink:href="#X" transform="matrix(1,0,0,1,1300.0328809206321,489.8543307086617) translate(11.493888086419759 78.97347555555555)"/><path d="M990.43 667.4a6 6 0 0 1 6-6h218a6 6 0 0 1 6 6v108a6 6 0 0 1-6 6h-218a6 6 0 0 1-6-6z" stroke="#3a414a" fill="#fff"/><use xlink:href="#Y" transform="matrix(1,0,0,1,1002.4330708661414,673.3976377952755) translate(42.927285308641984 53.49336888888889)"/><path d="M1595.43 483.85a6 6 0 0 1 6-6h218a6 6 0 0 1 6 6v108a6 6 0 0 1-6 6h-218a6 6 0 0 1-6-6z" stroke="#3a414a" fill="#fff"/><use xlink:href="#Z" transform="matrix(1,0,0,1,1607.4330708661414,489.8543307086617) translate(9.853884753086433 38.49336888888889)"/><use xlink:href="#aa" transform="matrix(1,0,0,1,1607.4330708661414,489.8543307086617) translate(183.3905337654321 38.49336888888889)"/><use xlink:href="#ab" transform="matrix(1,0,0,1,1607.4330708661414,489.8543307086617) translate(79.31106296296296 64.73342222222223)"/><path d="M989.47 721.4h-67.15" stroke="#3a414a" fill="none"/><path d="M989.97 721.9h-.5v-1h.5z" stroke="#3a414a" stroke-width=".05" fill="#3a414a"/><path d="M907.55 721.4l14.27-4.64v9.27z" stroke="#3a414a" fill="#3a414a"/><path d="M1218 531.43v-1h15.8v1z" stroke="#3a414a" stroke-width=".05" fill="#3a414a"/><path d="M1218 531.43h-.57l.06-.5-.07-.5h.57z" fill="#3a414a"/><path d="M1218.02 531.46h-.6l.04-.53-.05-.52h.62zm-.56-1l.05.47-.04.48h.5v-.94z" stroke="#3a414a" stroke-width=".05" fill="#3a414a"/><path d="M1285.95 537.85l-14.26 4.64v-9.28z" fill="#3a414a"/><path d="M1287.57 537.85l-16.33 5.3v-10.6zm-15.38 3.95l12.13-3.95-12.14-3.94z" stroke="#3a414a" stroke-width=".05" fill="#3a414a"/><use xlink:href="#y" transform="matrix(1,0,0,1,1233.8114115713506,523.7260787956653) translate(0 14.222222222222223)"/><path d="M1519 537.85h59.6" stroke="#3a414a" fill="none"/><path d="M1519 538.35h-.5v-1h.5z" stroke="#3a414a" stroke-width=".05" fill="#3a414a"/><path d="M1593.35 537.85l-14.26 4.64v-9.28z" stroke="#3a414a" fill="#3a414a"/><path d="M1105.93 644.55h-1v-5.05h1zm0-26.38h-1v-20.93h1z" stroke="#3a414a" stroke-width=".05" fill="#3a414a"/><path d="M1105.43 596.74l.5-.03v.55h-1v-.54z" fill="#3a414a"/><path d="M1105.43 596.7l.53-.02v.6h-1.05v-.6zm-.47.52h.95v-.48l-.47.02-.47-.02z" stroke="#3a414a" stroke-width=".05" fill="#3a414a"/><path d="M1105.43 659.32l-4.63-14.27h9.27z" fill="#3a414a"/><path d="M1105.43 660.93l-5.32-16.38h10.66zm-3.94-15.38l3.93 12.15 3.95-12.15z" stroke="#3a414a" stroke-width=".05" fill="#3a414a"/><use xlink:href="#A" transform="matrix(1,0,0,1,1082.7417128414504,618.16869355167) translate(0 14.222222222222223)"/><path d="M1105.93 448.74h-1v-6.7h1zm0-28.04h-1v-22.6h1z" stroke="#3a414a" stroke-width=".05" fill="#3a414a"/><path d="M1105.43 397.6l.5-.03v.54h-1v-.53z" fill="#3a414a"/><path d="M1105.43 397.57l.53-.02v.6h-1.05v-.6zm-.47.52h.95v-.5l-.47.02-.47-.02z" stroke="#3a414a" stroke-width=".05" fill="#3a414a"/><path d="M1105.43 463.5l-4.63-14.26h9.27z" fill="#3a414a"/><path d="M1105.43 465.13l-5.32-16.4h10.66zm-3.94-15.4l3.93 12.16 3.95-12.16z" stroke="#3a414a" stroke-width=".05" fill="#3a414a"/><g><use xlink:href="#y" transform="matrix(1,0,0,1,1086.7170214834255,420.69524993347414) translate(0 14.222222222222223)"/></g><path d="M795.93 664.5h-1l.05-234.63h1zM956.7 319.78H801.44l-.88.07-.84.2-.8.33-.73.45-.65.56-.57.66-.45.74-.33.8-.2.8v84.16h-1v-84.27l.25-1 .4-.95.52-.87.67-.78.77-.66.88-.52.94-.4 1-.23 1-.08h155.27z" stroke="#3a414a" stroke-width=".05" fill="#3a414a"/><path d="M960.2 319.77h-3.52v-1h3.5z" stroke="#3a414a" stroke-width=".05" fill="#3a414a"/><path d="M795.43 679.28L790.8 665h9.27z" fill="#3a414a"/><path d="M795.43 680.9l-5.32-16.4h10.66zm-3.94-15.4l3.93 12.16 3.95-12.15z" stroke="#3a414a" stroke-width=".05" fill="#3a414a"/><g><use xlink:href="#A" transform="matrix(1,0,0,1,772.7417128414502,408.5398875265473) translate(0 14.222222222222223)"/></g><path d="M1710.43 476.9V325.26a6 6 0 0 0-6-6h-433.15" stroke="#3a414a" fill="none"/><path d="M1710.93 477.4h-1v-.52h1z" stroke="#3a414a" stroke-width=".05" fill="#3a414a"/><path d="M1256.5 319.27l14.28-4.63v9.27z" stroke="#3a414a" fill="#3a414a"/><path d="M210.2 343.63a10.65 10.65 0 0 1 10.46 0l94.75 53.4a3.38 3.38 0 0 1 0 5.9l-94.74 53.4a10.65 10.65 0 0 1-10.45 0l-94.74-53.4a3.38 3.38 0 0 1 0-5.9z" stroke="#3a414a" fill="#fff"/><g><use xlink:href="#ac" transform="matrix(1,0,0,1,122.23345075716026,352.68897637795266) translate(12.94854098765432 50.077785408552714)"/></g><path d="M215.43 271.7v53.68" stroke="#3a414a" fill="none"/><path d="M215.93 271.7h-1v-.5h1z" stroke="#3a414a" stroke-width=".05" fill="#3a414a"/><path d="M215.43 340.14l-4.63-14.26h9.27z" stroke="#3a414a" fill="#3a414a"/><path d="M38.72 40h353.43v36.24H38.72z" fill="#fff" fill-opacity="0"/><g><use xlink:href="#ad" transform="matrix(1,0,0,1,43.71864777972172,45) translate(0.2855769135802291 17.493368888888888)"/></g><path d="M281.43 190.7c24.3 0 44 17.9 44 40 0 22.08-19.7 40-44 40h-132c-24.3 0-44-17.92-44-40 0-22.1 19.7-40 44-40z" stroke="#3a414a" fill="#fff"/><g><use xlink:href="#F" transform="matrix(1,0,0,1,117.43307086614153,202.6889763779527) translate(74.94884203703704 31.493368888888888)"/></g><path d="M725.43 110.7H845.2v13.04H725.42z" fill="#fff" fill-opacity="0"/><g><use xlink:href="#ae" transform="matrix(1,0,0,1,730.4330708661415,115.68897637795271) translate(-25.360163333333333 17.493368888888888)"/></g><path d="M790.03 1040.34l1 .24.96.4.86.53.77.67.66.78.53.87.4.94.23 1 .07 1v33.8h-1v-33.77l-.07-.9-.2-.83-.33-.8-.45-.74-.56-.65-.65-.56-.74-.45-.8-.33-.82-.2-238.9-.03v-1zm-284.4-.04v1l-267.97-.03v-1z" stroke="#3a414a" stroke-width=".05" fill="#3a414a"/><path d="M795.53 1081.1l-.5-.03-.5.03v-.54h1z" fill="#3a414a"/><path d="M795.56 1081.13l-.53-.03-.52.03v-.6h1.06zm-1-.54v.47l.47-.02.48.02v-.48z" stroke="#3a414a" stroke-width=".05" fill="#3a414a"/><path d="M237.16 1045.4l-14.27-4.63 14.26-4.64z" fill="#3a414a"/><path d="M237.66 1046.1l-16.38-5.33 16.38-5.33zm-13.15-5.33l12.16 3.94v-7.88z" stroke="#3a414a" stroke-width=".05" fill="#3a414a"/><g><use xlink:href="#A" transform="matrix(1,0,0,1,505.6167089682423,1030.100158505473) translate(0 14.222222222222223)"/></g><path d="M1094.83 1077.62v-33.5a6 6 0 0 0-6-6h-287.8a6 6 0 0 0-6 6v20.57" stroke="#3a414a" fill="none"/><path d="M1095.33 1078.12h-1v-.5h1z" stroke="#3a414a" stroke-width=".05" fill="#3a414a"/><path d="M795.03 1079.46l-4.63-14.27h9.27z" stroke="#3a414a" fill="#3a414a"/><path d="M420 886a6 6 0 0 1 6-6h588a6 6 0 0 1 6 6v68a6 6 0 0 1-6 6H426a6 6 0 0 1-6-6z" stroke="#000" stroke-opacity="0" fill="#fff" fill-opacity="0"/><g><use xlink:href="#af" transform="matrix(1,0,0,1,425,885) translate(206.7408248148148 38.95864666666667)"/><use xlink:href="#ag" transform="matrix(1,0,0,1,425,885) translate(256.1900518518518 38.95864666666667)"/><use xlink:href="#ah" transform="matrix(1,0,0,1,425,885) translate(269.5727925925926 38.95864666666667)"/><use xlink:href="#ai" transform="matrix(1,0,0,1,425,885) translate(369.87643444444444 38.95864666666667)"/></g></g><defs><path fill="#282c33" d="M165-152l-12 59h38v26h-44L133 0h-27l14-67H66L52 0H25l14-67H11v-26h33l13-59H20v-26h42l15-67h27l-15 67h54l15-67h28l-15 67h29v26h-35zm-81 0L72-93h54l12-59H84" id="aj"/><path fill="#282c33" d="M156-122c2-23-7-37-28-37-47 0-58 44-58 89 0 24 12 40 36 40 43 0 47-49 50-92zM-8 75l50-265h48c0 10-3 24-3 30 22-50 127-45 121 29-6 73-21 135-92 135-29 0-46-14-55-35L41 75H-8" id="ak"/><path fill="#282c33" d="M84-151c13-25 34-51 72-40l-8 41C67-170 71-64 56 0H6l36-190h47" id="al"/><path fill="#282c33" d="M166-52c-4 17 5 29 24 23l-3 27c-30 11-74 1-67-34C105-15 91 4 56 4 23 4 3-15 2-49c0-64 63-67 128-67 10-22 3-53-29-45-13 3-22 10-25 24l-46-5c5-64 156-77 153 0-1 33-11 60-17 90zM97-88c-44-9-64 57-19 57 31 0 42-28 47-57H97" id="am"/><path fill="#282c33" d="M45-171c29-32 103-29 114 14 2-11 5-23 8-33h47L176-2c-3 70-92 96-155 64C9 56 1 42-1 25l50-5c2 28 48 27 63 11 13-13 20-45 21-66-13 20-30 35-62 36-87 3-60-134-26-172zM94-35c41-3 55-43 55-86 0-24-12-39-35-39-43 0-51 48-51 90 0 22 9 37 31 35" id="an"/><path fill="#282c33" d="M255-194c90 0 29 129 24 194h-49l25-136c-7-39-53-14-60 9-12 38-18 85-28 127h-49l25-136c2-29-39-23-50-7C69-108 68-47 56 0H6l36-190h48c-1 10-6 24-4 32 12-20 27-36 57-36s46 15 50 41c14-21 29-41 62-41" id="ao"/><g id="a"><use transform="matrix(0.06074086419753086,0,0,0.06074086419753086,0,0)" xlink:href="#aj"/><use transform="matrix(0.06074086419753086,0,0,0.06074086419753086,12.148172839506172,0)" xlink:href="#ak"/><use transform="matrix(0.06074086419753086,0,0,0.06074086419753086,25.45042209876543,0)" xlink:href="#al"/><use transform="matrix(0.06074086419753086,0,0,0.06074086419753086,33.95414308641975,0)" xlink:href="#am"/><use transform="matrix(0.06074086419753086,0,0,0.06074086419753086,46.10231592592592,0)" xlink:href="#an"/><use transform="matrix(0.06074086419753086,0,0,0.06074086419753086,59.40456518518518,0)" xlink:href="#ao"/><use transform="matrix(0.06074086419753086,0,0,0.06074086419753086,78.84164172839505,0)" xlink:href="#am"/></g><path fill="#282c33" d="M110-194c64 0 96 36 96 99 0 64-35 99-97 99-61 0-95-36-95-99 0-62 34-99 96-99zm-1 164c35 0 45-28 45-65 0-40-10-65-43-65-34 0-45 26-45 65 0 36 10 65 43 65" id="ap"/><path fill="#282c33" d="M220-157c-53 9-28 100-34 157h-49v-107c1-27-5-49-29-50C55-147 81-57 75 0H25l-1-190h47c2 12-1 28 3 38 10-53 101-56 108 0 13-22 24-43 59-42 82 1 51 116 57 194h-49v-107c-1-25-5-48-29-50" id="aq"/><path fill="#282c33" d="M135-194c53 0 70 44 70 98 0 56-19 98-73 100-31 1-45-17-59-34 3 33 2 69 2 105H25l-1-265h48c2 10 0 23 3 31 11-24 29-35 60-35zM114-30c33 0 39-31 40-66 0-38-9-64-40-64-56 0-55 130 0 130" id="ar"/><g id="b"><use transform="matrix(0.06074086419753086,0,0,0.06074086419753086,0,0)" xlink:href="#ap"/><use transform="matrix(0.06074086419753086,0,0,0.06074086419753086,13.302249259259257,0)" xlink:href="#aq"/><use transform="matrix(0.06074086419753086,0,0,0.06074086419753086,32.73932580246913,0)" xlink:href="#ar"/></g><path fill="#282c33" d="M133-34C117-15 103 5 69 4 32 3 11-16 11-54c-1-60 55-63 116-61 1-26-3-47-28-47-18 1-26 9-28 27l-52-2c7-38 36-58 82-57s74 22 75 68l1 82c-1 14 12 18 25 15v27c-30 8-71 5-69-32zm-48 3c29 0 43-24 42-57-32 0-66-3-65 30 0 17 8 27 23 27" id="as"/><path fill="#282c33" d="M135-150c-39-12-60 13-60 57V0H25l-1-190h47c2 13-1 29 3 40 6-28 27-53 61-41v41" id="at"/><path fill="#282c33" d="M25 0v-261h50V0H25" id="au"/><path fill="#282c33" d="M185-48c-13 30-37 53-82 52C43 2 14-33 14-96s30-98 90-98c62 0 83 45 84 108H66c0 31 8 55 39 56 18 0 30-7 34-22zm-45-69c5-46-57-63-70-21-2 6-4 13-4 21h74" id="av"/><g id="c"><use transform="matrix(0.06074086419753086,0,0,0.06074086419753086,0,0)" xlink:href="#ar"/><use transform="matrix(0.06074086419753086,0,0,0.06074086419753086,13.302249259259257,0)" xlink:href="#as"/><use transform="matrix(0.06074086419753086,0,0,0.06074086419753086,25.45042209876543,0)" xlink:href="#at"/><use transform="matrix(0.06074086419753086,0,0,0.06074086419753086,33.95414308641975,0)" xlink:href="#as"/><use transform="matrix(0.06074086419753086,0,0,0.06074086419753086,46.10231592592592,0)" xlink:href="#au"/><use transform="matrix(0.06074086419753086,0,0,0.06074086419753086,52.17640234567901,0)" xlink:href="#au"/><use transform="matrix(0.06074086419753086,0,0,0.06074086419753086,58.250488765432095,0)" xlink:href="#av"/><use transform="matrix(0.06074086419753086,0,0,0.06074086419753086,70.39866160493827,0)" xlink:href="#au"/></g><path fill="#282c33" d="M93-157L62 0H13l31-157H16l6-33h28c2-54 40-81 100-68l-6 32c-29-8-44 9-45 36h38l-7 33H93" id="aw"/><path fill="#282c33" d="M124-194c51 0 84 22 84 74C207-44 167 4 94 4 43 4 11-23 11-74c0-74 41-120 113-120zM99-30c46 0 58-42 58-86 0-27-11-44-37-44-44 0-55 40-57 84-1 27 10 45 36 46" id="ax"/><g id="d"><use transform="matrix(0.06074086419753086,0,0,0.06074086419753086,0,0)" xlink:href="#aw"/><use transform="matrix(0.06074086419753086,0,0,0.06074086419753086,7.228162839506172,0)" xlink:href="#ax"/><use transform="matrix(0.06074086419753086,0,0,0.06074086419753086,20.53041209876543,0)" xlink:href="#al"/></g><path fill="#282c33" d="M190-63c-7 42-38 67-86 67-59 0-84-38-90-98-12-110 154-137 174-36l-49 2c-2-19-15-32-35-32-30 0-35 28-38 64-6 74 65 87 74 30" id="ay"/><path fill="#282c33" d="M137-138c1-29-70-34-71-4 15 46 118 7 119 86 1 83-164 76-172 9l43-7c4 19 20 25 44 25 33 8 57-30 24-41C81-84 22-81 20-136c-2-80 154-74 161-7" id="az"/><path fill="#282c33" d="M67-93c0 74 22 123 53 168H70C40 30 18-18 18-93s22-123 52-168h50c-32 44-53 94-53 168" id="aA"/><path fill="#282c33" d="M182-182c0 78-84 86-111 141h115V0H12c-6-101 99-100 120-180 1-22-12-31-33-32-23 0-32 14-35 34l-49-3c5-45 32-70 84-70 51 0 83 22 83 69" id="aB"/><path fill="#282c33" d="M102-93c0 74-22 123-52 168H0C30 29 54-18 53-93c0-74-22-123-53-168h50c30 45 52 94 52 168" id="aC"/><g id="e"><use transform="matrix(0.06074086419753086,0,0,0.06074086419753086,0,0)" xlink:href="#ay"/><use transform="matrix(0.06074086419753086,0,0,0.06074086419753086,12.148172839506172,0)" xlink:href="#ap"/><use transform="matrix(0.06074086419753086,0,0,0.06074086419753086,25.45042209876543,0)" xlink:href="#au"/><use transform="matrix(0.06074086419753086,0,0,0.06074086419753086,31.524508518518516,0)" xlink:href="#au"/><use transform="matrix(0.06074086419753086,0,0,0.06074086419753086,37.5985949382716,0)" xlink:href="#as"/><use transform="matrix(0.06074086419753086,0,0,0.06074086419753086,49.74676777777778,0)" xlink:href="#ar"/><use transform="matrix(0.06074086419753086,0,0,0.06074086419753086,63.04901703703703,0)" xlink:href="#az"/><use transform="matrix(0.06074086419753086,0,0,0.06074086419753086,75.1971898765432,0)" xlink:href="#av"/><use transform="matrix(0.06074086419753086,0,0,0.06074086419753086,87.34536271604938,0)" xlink:href="#aA"/><use transform="matrix(0.06074086419753086,0,0,0.06074086419753086,94.57352555555555,0)" xlink:href="#aB"/><use transform="matrix(0.06074086419753086,0,0,0.06074086419753086,106.72169839506172,0)" xlink:href="#aC"/></g><path fill="#282c33" d="M114-157C55-157 80-60 75 0H25v-261h50l-1 109c12-26 28-41 61-42 86-1 58 113 63 194h-50c-7-57 23-157-34-157" id="aD"/><path fill="#282c33" d="M88-194c31-1 46 15 58 34l-1-101h50l1 261h-48c-2-10 0-23-3-31C134-8 116 4 84 4 32 4 16-41 15-95c0-56 19-97 73-99zm17 164c33 0 40-30 41-66 1-37-9-64-41-64s-38 30-39 65c0 43 13 65 39 65" id="aE"/><path fill="#282c33" d="M85 4C-2 5 27-109 22-190h50c7 57-23 150 33 157 60-5 35-97 40-157h50l1 190h-47c-2-12 1-28-3-38-12 25-28 42-61 42" id="aF"/><path fill="#282c33" d="M144-137c-1-29-70-35-71-2 16 41 103 10 103 80C176 9 79 16 32-9 18-17 9-31 4-48l44-6c3 32 80 36 82 1-15-42-103-11-103-82 0-77 157-79 161-8" id="aG"/><path fill="#282c33" d="M72-63c-8 23 5 39 32 30L98-1C54 14 12-6 23-64l18-93H15l7-33h28l24-45h31l-8 45h35l-6 33H90" id="aH"/><path fill="#282c33" d="M50-224l7-37h49l-7 37H50zM6 0l37-190h49L55 0H6" id="aI"/><path fill="#282c33" d="M67-101c-8 29-7 73 27 71 23-2 32-16 39-37l48 9C170-19 141 4 91 4 36 4 7-28 12-86c6-75 61-124 140-103 26 7 40 29 43 59l-50 4c-1-20-9-34-29-34-35 0-41 29-49 59" id="aJ"/><path fill="#282c33" d="M76-54c-1 42 2 86-19 110H24C36 42 46 24 48 0H25v-54h51" id="aK"/><g id="f"><use transform="matrix(0.06074086419753086,0,0,0.06074086419753086,0,0)" xlink:href="#az"/><use transform="matrix(0.06074086419753086,0,0,0.06074086419753086,12.148172839506172,0)" xlink:href="#ay"/><use transform="matrix(0.06074086419753086,0,0,0.06074086419753086,24.296345679012344,0)" xlink:href="#aD"/><use transform="matrix(0.06074086419753086,0,0,0.06074086419753086,37.5985949382716,0)" xlink:href="#av"/><use transform="matrix(0.06074086419753086,0,0,0.06074086419753086,49.74676777777778,0)" xlink:href="#aE"/><use transform="matrix(0.06074086419753086,0,0,0.06074086419753086,63.04901703703703,0)" xlink:href="#aF"/><use transform="matrix(0.06074086419753086,0,0,0.06074086419753086,76.35126629629629,0)" xlink:href="#au"/><use transform="matrix(0.06074086419753086,0,0,0.06074086419753086,82.42535271604937,0)" xlink:href="#av"/><use transform="matrix(0.06074086419753086,0,0,0.06074086419753086,94.57352555555555,0)" xlink:href="#aA"/><use transform="matrix(0.06074086419753086,0,0,0.06074086419753086,101.80168839506172,0)" xlink:href="#aG"/><use transform="matrix(0.06074086419753086,0,0,0.06074086419753086,113.94986123456789,0)" xlink:href="#aH"/><use transform="matrix(0.06074086419753086,0,0,0.06074086419753086,121.17802407407406,0)" xlink:href="#am"/><use transform="matrix(0.06074086419753086,0,0,0.06074086419753086,133.32619691358022,0)" xlink:href="#aH"/><use transform="matrix(0.06074086419753086,0,0,0.06074086419753086,140.5543597530864,0)" xlink:href="#aI"/><use transform="matrix(0.06074086419753086,0,0,0.06074086419753086,146.6284461728395,0)" xlink:href="#aJ"/><use transform="matrix(0.06074086419753086,0,0,0.06074086419753086,158.77661901234566,0)" xlink:href="#aK"/></g><path fill="#282c33" d="M23 0v-37h61v-169l-59 37v-38l62-41h46v211h57V0H23" id="aL"/><g id="g"><use transform="matrix(0.06074086419753086,0,0,0.06074086419753086,0,0)" xlink:href="#aL"/><use transform="matrix(0.06074086419753086,0,0,0.06074086419753086,12.148172839506172,0)" xlink:href="#aC"/></g><path fill="#3a414a" d="M127-220V0H93v-220H8v-28h204v28h-85" id="aM"/><path fill="#3a414a" d="M100-194c63 0 86 42 84 106H49c0 40 14 67 53 68 26 1 43-12 49-29l28 8c-11 28-37 45-77 45C44 4 14-33 15-96c1-61 26-98 85-98zm52 81c6-60-76-77-97-28-3 7-6 17-6 28h103" id="aN"/><path fill="#3a414a" d="M141 0L90-78 38 0H4l68-98-65-92h35l48 74 47-74h35l-64 92 68 98h-35" id="aO"/><path fill="#3a414a" d="M59-47c-2 24 18 29 38 22v24C64 9 27 4 27-40v-127H5v-23h24l9-43h21v43h35v23H59v120" id="aP"/><g id="h"><use transform="matrix(0.06172839506172839,0,0,0.06172839506172839,0,0)" xlink:href="#aM"/><use transform="matrix(0.06172839506172839,0,0,0.06172839506172839,11.049382716049381,0)" xlink:href="#aN"/><use transform="matrix(0.06172839506172839,0,0,0.06172839506172839,23.39506172839506,0)" xlink:href="#aO"/><use transform="matrix(0.06172839506172839,0,0,0.06172839506172839,34.50617283950617,0)" xlink:href="#aP"/></g><path fill="#282c33" d="M210-169c-67 3-38 105-44 169h-31v-121c0-29-5-50-35-48C34-165 62-65 56 0H25l-1-190h30c1 10-1 24 2 32 10-44 99-50 107 0 11-21 27-35 58-36 85-2 47 119 55 194h-31v-121c0-29-5-49-35-48" id="aQ"/><path fill="#282c33" d="M141-36C126-15 110 5 73 4 37 3 15-17 15-53c-1-64 63-63 125-63 3-35-9-54-41-54-24 1-41 7-42 31l-33-3c5-37 33-52 76-52 45 0 72 20 72 64v82c-1 20 7 32 28 27v20c-31 9-61-2-59-35zM48-53c0 20 12 33 32 33 41-3 63-29 60-74-43 2-92-5-92 41" id="aR"/><path fill="#282c33" d="M115-194c55 1 70 41 70 98S169 2 115 4C84 4 66-9 55-30l1 105H24l-1-265h31l2 30c10-21 28-34 59-34zm-8 174c40 0 45-34 45-75s-6-73-45-74c-42 0-51 32-51 76 0 43 10 73 51 73" id="aS"/><path fill="#282c33" d="M158-156l-14 65h45v19h-49L124 0h-19l15-72H56L41 0H22l15-72H2v-19h39l14-65H11v-19h48l15-71h20l-16 71h64l16-71h19l-16 71h37v19h-40zm-83 0L61-91h63l14-65H75" id="aT"/><path fill="#282c33" d="M33 0v-38h34V0H33" id="aU"/><path fill="#282c33" d="M59-47c-2 24 18 29 38 22v24C64 9 27 4 27-40v-127H5v-23h24l9-43h21v43h35v23H59v120" id="aV"/><path fill="#282c33" d="M141 0L90-78 38 0H4l68-98-65-92h35l48 74 47-74h35l-64 92 68 98h-35" id="aW"/><g id="i"><use transform="matrix(0.06074086419753086,0,0,0.06074086419753086,0,0)" xlink:href="#aQ"/><use transform="matrix(0.06074086419753086,0,0,0.06074086419753086,18.161518395061726,0)" xlink:href="#aR"/><use transform="matrix(0.06074086419753086,0,0,0.06074086419753086,30.3096912345679,0)" xlink:href="#aS"/><use transform="matrix(0.06074086419753086,0,0,0.06074086419753086,42.457864074074074,0)" xlink:href="#aT"/><use transform="matrix(0.06074086419753086,0,0,0.06074086419753086,54.60603691358025,0)" xlink:href="#aT"/><use transform="matrix(0.06074086419753086,0,0,0.06074086419753086,66.75420975308641,0)" xlink:href="#aT"/><use transform="matrix(0.06074086419753086,0,0,0.06074086419753086,78.90238259259259,0)" xlink:href="#aU"/><use transform="matrix(0.06074086419753086,0,0,0.06074086419753086,84.97646901234567,0)" xlink:href="#aV"/><use transform="matrix(0.06074086419753086,0,0,0.06074086419753086,91.05055543209876,0)" xlink:href="#aW"/><use transform="matrix(0.06074086419753086,0,0,0.06074086419753086,101.98391098765431,0)" xlink:href="#aV"/></g><path fill="#282c33" d="M24-231v-30h32v30H24zM-9 49c24 4 33-6 33-30v-209h32V24c2 40-23 58-65 49V49" id="aX"/><path fill="#282c33" d="M100-194c62-1 85 37 85 99 1 63-27 99-86 99S16-35 15-95c0-66 28-99 85-99zM99-20c44 1 53-31 53-75 0-43-8-75-51-75s-53 32-53 75 10 74 51 75" id="aY"/><path fill="#282c33" d="M115-194c53 0 69 39 70 98 0 66-23 100-70 100C84 3 66-7 56-30L54 0H23l1-261h32v101c10-23 28-34 59-34zm-8 174c40 0 45-34 45-75 0-40-5-75-45-74-42 0-51 32-51 76 0 43 10 73 51 73" id="aZ"/><g id="j"><use transform="matrix(0.06074086419753086,0,0,0.06074086419753086,0,0)" xlink:href="#aX"/><use transform="matrix(0.06074086419753086,0,0,0.06074086419753086,4.798528271604938,0)" xlink:href="#aY"/><use transform="matrix(0.06074086419753086,0,0,0.06074086419753086,16.94670111111111,0)" xlink:href="#aZ"/><use transform="matrix(0.06074086419753086,0,0,0.06074086419753086,29.094873950617284,0)" xlink:href="#aT"/><use transform="matrix(0.06074086419753086,0,0,0.06074086419753086,41.24304679012346,0)" xlink:href="#aT"/><use transform="matrix(0.06074086419753086,0,0,0.06074086419753086,53.39121962962963,0)" xlink:href="#aT"/><use transform="matrix(0.06074086419753086,0,0,0.06074086419753086,65.5393924691358,0)" xlink:href="#aU"/><use transform="matrix(0.06074086419753086,0,0,0.06074086419753086,71.61347888888889,0)" xlink:href="#aV"/><use transform="matrix(0.06074086419753086,0,0,0.06074086419753086,77.68756530864198,0)" xlink:href="#aW"/><use transform="matrix(0.06074086419753086,0,0,0.06074086419753086,88.62092086419753,0)" xlink:href="#aV"/></g><path fill="#282c33" d="M240 0l2-218c-23 76-54 145-80 218h-23L58-218 59 0H30v-248h44l77 211c21-75 51-140 76-211h43V0h-30" id="ba"/><path fill="#282c33" d="M63-220v92h138v28H63V0H30v-248h175v28H63" id="bb"/><path fill="#282c33" d="M24-231v-30h32v30H24zM24 0v-190h32V0H24" id="bc"/><path fill="#282c33" d="M24 0v-261h32V0H24" id="bd"/><path fill="#282c33" d="M100-194c63 0 86 42 84 106H49c0 40 14 67 53 68 26 1 43-12 49-29l28 8c-11 28-37 45-77 45C44 4 14-33 15-96c1-61 26-98 85-98zm52 81c6-60-76-77-97-28-3 7-6 17-6 28h103" id="be"/><path fill="#282c33" d="M114-163C36-179 61-72 57 0H25l-1-190h30c1 12-1 29 2 39 6-27 23-49 58-41v29" id="bf"/><g id="k"><use transform="matrix(0.06074086419753086,0,0,0.06074086419753086,0,0)" xlink:href="#ba"/><use transform="matrix(0.06074086419753086,0,0,0.06074086419753086,18.161518395061726,0)" xlink:href="#aR"/><use transform="matrix(0.06074086419753086,0,0,0.06074086419753086,30.3096912345679,0)" xlink:href="#aS"/><use transform="matrix(0.06074086419753086,0,0,0.06074086419753086,42.457864074074074,0)" xlink:href="#bb"/><use transform="matrix(0.06074086419753086,0,0,0.06074086419753086,55.76011333333333,0)" xlink:href="#bc"/><use transform="matrix(0.06074086419753086,0,0,0.06074086419753086,60.558641604938266,0)" xlink:href="#bd"/><use transform="matrix(0.06074086419753086,0,0,0.06074086419753086,65.35716987654321,0)" xlink:href="#be"/><use transform="matrix(0.06074086419753086,0,0,0.06074086419753086,77.50534271604938,0)" xlink:href="#bf"/></g><path fill="#282c33" d="M101-234c-31-9-42 10-38 44h38v23H63V0H32v-167H5v-23h27c-7-52 17-82 69-68v24" id="bg"/><g id="l"><use transform="matrix(0.06074086419753086,0,0,0.06074086419753086,0,0)" xlink:href="#bg"/><use transform="matrix(0.06074086419753086,0,0,0.06074086419753086,6.074086419753086,0)" xlink:href="#bc"/><use transform="matrix(0.06074086419753086,0,0,0.06074086419753086,10.872614691358024,0)" xlink:href="#bd"/><use transform="matrix(0.06074086419753086,0,0,0.06074086419753086,15.67114296296296,0)" xlink:href="#be"/><use transform="matrix(0.06074086419753086,0,0,0.06074086419753086,27.819315802469134,0)" xlink:href="#bf"/></g><path fill="#282c33" d="M39-94c74 12-11 154 75 146v23c-44 4-70-10-70-52C44-23 55-84 6-82v-22c81 4-7-162 84-157h24v23c-82-15-2 131-75 144" id="bh"/><use transform="matrix(0.06074086419753086,0,0,0.06074086419753086,0,0)" xlink:href="#bh" id="m"/><path fill="#282c33" d="M30-248c87 1 191-15 191 75 0 78-77 80-158 76V0H30v-248zm33 125c57 0 124 11 124-50 0-59-68-47-124-48v98" id="bi"/><path fill="#282c33" d="M106-169C34-169 62-67 57 0H25v-261h32l-1 103c12-21 28-36 61-36 89 0 53 116 60 194h-32v-121c2-32-8-49-39-48" id="bj"/><g id="n"><use transform="matrix(0.06074086419753086,0,0,0.06074086419753086,0,0)" xlink:href="#aX"/><use transform="matrix(0.06074086419753086,0,0,0.06074086419753086,4.798528271604938,0)" xlink:href="#aY"/><use transform="matrix(0.06074086419753086,0,0,0.06074086419753086,16.94670111111111,0)" xlink:href="#aZ"/><use transform="matrix(0.06074086419753086,0,0,0.06074086419753086,29.094873950617284,0)" xlink:href="#bi"/><use transform="matrix(0.06074086419753086,0,0,0.06074086419753086,43.67268135802469,0)" xlink:href="#aR"/><use transform="matrix(0.06074086419753086,0,0,0.06074086419753086,55.82085419753086,0)" xlink:href="#aV"/><use transform="matrix(0.06074086419753086,0,0,0.06074086419753086,61.89494061728395,0)" xlink:href="#bj"/></g><path fill="#282c33" d="M76-40C78 24 84 88 6 75V52C86 64 9-79 80-94c-40-6-34-59-34-106 1-29-11-41-40-38v-23c44-4 70 10 70 52 0 47-12 108 38 105v22c-26 1-39 14-38 42" id="bk"/><use transform="matrix(0.06074086419753086,0,0,0.06074086419753086,0,0)" xlink:href="#bk" id="o"/><path fill="#282c33" d="M153-248C145-148 188 4 80 4 36 3 13-21 6-62l32-5c4 25 16 42 43 43 27 0 39-20 39-49v-147H72v-28h81" id="bl"/><g id="p"><use transform="matrix(0.06074086419753086,0,0,0.06074086419753086,0,0)" xlink:href="#bl"/><use transform="matrix(0.06074086419753086,0,0,0.06074086419753086,10.933355555555554,0)" xlink:href="#aY"/><use transform="matrix(0.06074086419753086,0,0,0.06074086419753086,23.081528395061724,0)" xlink:href="#aZ"/></g><g id="q"><use transform="matrix(0.06074086419753086,0,0,0.06074086419753086,0,0)" xlink:href="#aX"/><use transform="matrix(0.06074086419753086,0,0,0.06074086419753086,4.798528271604938,0)" xlink:href="#aY"/><use transform="matrix(0.06074086419753086,0,0,0.06074086419753086,16.94670111111111,0)" xlink:href="#aZ"/></g><path fill="#282c33" d="M135-143c-3-34-86-38-87 0 15 53 115 12 119 90S17 21 10-45l28-5c4 36 97 45 98 0-10-56-113-15-118-90-4-57 82-63 122-42 12 7 21 19 24 35" id="bm"/><path fill="#282c33" d="M87 75C49 33 22-17 22-94c0-76 28-126 65-167h31c-38 41-64 92-64 168S80 34 118 75H87" id="bn"/><path fill="#282c33" d="M33-261c38 41 65 92 65 168S71 34 33 75H2C39 34 66-17 66-93S39-220 2-261h31" id="bo"/><g id="r"><use transform="matrix(0.06074086419753086,0,0,0.06074086419753086,0,0)" xlink:href="#bh"/><use transform="matrix(0.06074086419753086,0,0,0.06074086419753086,7.288903703703703,0)" xlink:href="#bg"/><use transform="matrix(0.06074086419753086,0,0,0.06074086419753086,13.36299012345679,0)" xlink:href="#bc"/><use transform="matrix(0.06074086419753086,0,0,0.06074086419753086,18.161518395061726,0)" xlink:href="#bd"/><use transform="matrix(0.06074086419753086,0,0,0.06074086419753086,22.960046666666663,0)" xlink:href="#be"/><use transform="matrix(0.06074086419753086,0,0,0.06074086419753086,35.10821950617284,0)" xlink:href="#bf"/><use transform="matrix(0.06074086419753086,0,0,0.06074086419753086,41.12156506172839,0)" xlink:href="#aU"/><use transform="matrix(0.06074086419753086,0,0,0.06074086419753086,47.19565148148148,0)" xlink:href="#aS"/><use transform="matrix(0.06074086419753086,0,0,0.06074086419753086,59.34382432098765,0)" xlink:href="#aR"/><use transform="matrix(0.06074086419753086,0,0,0.06074086419753086,71.49199716049382,0)" xlink:href="#bf"/><use transform="matrix(0.06074086419753086,0,0,0.06074086419753086,78.72015999999999,0)" xlink:href="#bm"/><use transform="matrix(0.06074086419753086,0,0,0.06074086419753086,89.65351555555554,0)" xlink:href="#be"/><use transform="matrix(0.06074086419753086,0,0,0.06074086419753086,101.80168839506172,0)" xlink:href="#bl"/><use transform="matrix(0.06074086419753086,0,0,0.06074086419753086,112.73504395061727,0)" xlink:href="#aY"/><use transform="matrix(0.06074086419753086,0,0,0.06074086419753086,124.88321679012344,0)" xlink:href="#aZ"/><use transform="matrix(0.06074086419753086,0,0,0.06074086419753086,137.03138962962962,0)" xlink:href="#bn"/><use transform="matrix(0.06074086419753086,0,0,0.06074086419753086,144.2595524691358,0)" xlink:href="#bo"/><use transform="matrix(0.06074086419753086,0,0,0.06074086419753086,151.48771530864198,0)" xlink:href="#bk"/></g><g id="s"><use transform="matrix(0.06074086419753086,0,0,0.06074086419753086,0,0)" xlink:href="#bg"/><use transform="matrix(0.06074086419753086,0,0,0.06074086419753086,6.074086419753086,0)" xlink:href="#aY"/><use transform="matrix(0.06074086419753086,0,0,0.06074086419753086,18.222259259259257,0)" xlink:href="#bf"/></g><path fill="#282c33" d="M96-169c-40 0-48 33-48 73s9 75 48 75c24 0 41-14 43-38l32 2c-6 37-31 61-74 61-59 0-76-41-82-99-10-93 101-131 147-64 4 7 5 14 7 22l-32 3c-4-21-16-35-41-35" id="bp"/><path fill="#282c33" d="M117-194c89-4 53 116 60 194h-32v-121c0-31-8-49-39-48C34-167 62-67 57 0H25l-1-190h30c1 10-1 24 2 32 11-22 29-35 61-36" id="bq"/><g id="t"><use transform="matrix(0.06074086419753086,0,0,0.06074086419753086,0,0)" xlink:href="#bn"/><use transform="matrix(0.06074086419753086,0,0,0.06074086419753086,7.228162839506172,0)" xlink:href="#bp"/><use transform="matrix(0.06074086419753086,0,0,0.06074086419753086,18.161518395061726,0)" xlink:href="#aY"/><use transform="matrix(0.06074086419753086,0,0,0.06074086419753086,30.3096912345679,0)" xlink:href="#bq"/><use transform="matrix(0.06074086419753086,0,0,0.06074086419753086,42.457864074074074,0)" xlink:href="#bm"/><use transform="matrix(0.06074086419753086,0,0,0.06074086419753086,53.39121962962963,0)" xlink:href="#aV"/></g><path fill="#282c33" d="M234-2c-28 10-62 0-77-18C117 19 8 12 13-65c3-43 29-61 60-76-25-40-17-114 47-108 35 3 59 15 59 50 0 44-40 53-71 69 14 26 32 50 51 72 14-21 24-43 30-72l26 8c-9 33-21 57-38 82 13 13 33 22 57 15v23zM97-151c25-10 52-18 56-48-1-18-13-29-33-29-42 0-39 50-23 77zM42-66c-3 51 71 58 98 28-20-24-41-51-56-80-23 10-40 24-42 52" id="br"/><g id="u"><use transform="matrix(0.06074086419753086,0,0,0.06074086419753086,0,0)" xlink:href="#ba"/><use transform="matrix(0.06074086419753086,0,0,0.06074086419753086,18.161518395061726,0)" xlink:href="#aR"/><use transform="matrix(0.06074086419753086,0,0,0.06074086419753086,30.3096912345679,0)" xlink:href="#aS"/><use transform="matrix(0.06074086419753086,0,0,0.06074086419753086,42.457864074074074,0)" xlink:href="#br"/></g><use transform="matrix(0.06074086419753086,0,0,0.06074086419753086,0,0)" xlink:href="#aQ" id="v"/><path fill="#282c33" d="M33-154v-36h34v36H33zM33 0v-36h34V0H33" id="bs"/><use transform="matrix(0.06074086419753086,0,0,0.06074086419753086,0,0)" xlink:href="#bs" id="w"/><g id="x"><use transform="matrix(0.06074086419753086,0,0,0.06074086419753086,0,0)" xlink:href="#aX"/><use transform="matrix(0.06074086419753086,0,0,0.06074086419753086,4.798528271604938,0)" xlink:href="#aY"/><use transform="matrix(0.06074086419753086,0,0,0.06074086419753086,16.94670111111111,0)" xlink:href="#aZ"/><use transform="matrix(0.06074086419753086,0,0,0.06074086419753086,29.094873950617284,0)" xlink:href="#bo"/></g><path fill="#333" d="M136-208V0H84v-208H4v-40h212v40h-80" id="bt"/><path fill="#333" d="M135-150c-39-12-60 13-60 57V0H25l-1-190h47c2 13-1 29 3 40 6-28 27-53 61-41v41" id="bu"/><path fill="#333" d="M85 4C-2 5 27-109 22-190h50c7 57-23 150 33 157 60-5 35-97 40-157h50l1 190h-47c-2-12 1-28-3-38-12 25-28 42-61 42" id="bv"/><path fill="#333" d="M185-48c-13 30-37 53-82 52C43 2 14-33 14-96s30-98 90-98c62 0 83 45 84 108H66c0 31 8 55 39 56 18 0 30-7 34-22zm-45-69c5-46-57-63-70-21-2 6-4 13-4 21h74" id="bw"/><g id="y"><use transform="matrix(0.04938271604938272,0,0,0.04938271604938272,0,0)" xlink:href="#bt"/><use transform="matrix(0.04938271604938272,0,0,0.04938271604938272,9.82716049382716,0)" xlink:href="#bu"/><use transform="matrix(0.04938271604938272,0,0,0.04938271604938272,16.74074074074074,0)" xlink:href="#bv"/><use transform="matrix(0.04938271604938272,0,0,0.04938271604938272,27.555555555555557,0)" xlink:href="#bw"/></g><path fill="#282c33" d="M30 0v-248h187v28H63v79h144v27H63v87h162V0H30" id="bx"/><path fill="#282c33" d="M85-194c31 0 48 13 60 33l-1-100h32l1 261h-30c-2-10 0-23-3-31C134-8 116 4 85 4 32 4 16-35 15-94c0-66 23-100 70-100zm9 24c-40 0-46 34-46 75 0 40 6 74 45 74 42 0 51-32 51-76 0-42-9-74-50-73" id="by"/><g id="z"><use transform="matrix(0.06074086419753086,0,0,0.06074086419753086,0,0)" xlink:href="#bx"/><use transform="matrix(0.06074086419753086,0,0,0.06074086419753086,14.577807407407406,0)" xlink:href="#bq"/><use transform="matrix(0.06074086419753086,0,0,0.06074086419753086,26.72598024691358,0)" xlink:href="#by"/></g><path fill="#333" d="M76-208v77h127v40H76V0H24v-248h183v40H76" id="bz"/><path fill="#333" d="M133-34C117-15 103 5 69 4 32 3 11-16 11-54c-1-60 55-63 116-61 1-26-3-47-28-47-18 1-26 9-28 27l-52-2c7-38 36-58 82-57s74 22 75 68l1 82c-1 14 12 18 25 15v27c-30 8-71 5-69-32zm-48 3c29 0 43-24 42-57-32 0-66-3-65 30 0 17 8 27 23 27" id="bA"/><path fill="#333" d="M25 0v-261h50V0H25" id="bB"/><path fill="#333" d="M137-138c1-29-70-34-71-4 15 46 118 7 119 86 1 83-164 76-172 9l43-7c4 19 20 25 44 25 33 8 57-30 24-41C81-84 22-81 20-136c-2-80 154-74 161-7" id="bC"/><g id="A"><use transform="matrix(0.04938271604938272,0,0,0.04938271604938272,0,0)" xlink:href="#bz"/><use transform="matrix(0.04938271604938272,0,0,0.04938271604938272,10.814814814814815,0)" xlink:href="#bA"/><use transform="matrix(0.04938271604938272,0,0,0.04938271604938272,20.69135802469136,0)" xlink:href="#bB"/><use transform="matrix(0.04938271604938272,0,0,0.04938271604938272,25.629629629629633,0)" xlink:href="#bC"/><use transform="matrix(0.04938271604938272,0,0,0.04938271604938272,35.50617283950618,0)" xlink:href="#bw"/></g><path fill="#282c33" d="M266 0h-40l-56-210L115 0H75L2-248h35L96-30l15-64 43-154h32l59 218 59-218h35" id="bD"/><g id="B"><use transform="matrix(0.06074086419753086,0,0,0.06074086419753086,0,0)" xlink:href="#ba"/><use transform="matrix(0.06074086419753086,0,0,0.06074086419753086,18.161518395061726,0)" xlink:href="#aR"/><use transform="matrix(0.06074086419753086,0,0,0.06074086419753086,30.3096912345679,0)" xlink:href="#aS"/><use transform="matrix(0.06074086419753086,0,0,0.06074086419753086,42.457864074074074,0)" xlink:href="#bD"/><use transform="matrix(0.06074086419753086,0,0,0.06074086419753086,62.623830987654316,0)" xlink:href="#bf"/><use transform="matrix(0.06074086419753086,0,0,0.06074086419753086,69.85199382716048,0)" xlink:href="#bc"/><use transform="matrix(0.06074086419753086,0,0,0.06074086419753086,74.65052209876542,0)" xlink:href="#aV"/><use transform="matrix(0.06074086419753086,0,0,0.06074086419753086,80.72460851851851,0)" xlink:href="#be"/><use transform="matrix(0.06074086419753086,0,0,0.06074086419753086,92.87278135802468,0)" xlink:href="#bf"/></g><path fill="#282c33" d="M206 0h-36l-40-164L89 0H53L-1-190h32L70-26l43-164h34l41 164 42-164h31" id="bE"/><g id="C"><use transform="matrix(0.06074086419753086,0,0,0.06074086419753086,0,0)" xlink:href="#bE"/><use transform="matrix(0.06074086419753086,0,0,0.06074086419753086,15.731883827160493,0)" xlink:href="#bf"/><use transform="matrix(0.06074086419753086,0,0,0.06074086419753086,22.960046666666663,0)" xlink:href="#bc"/><use transform="matrix(0.06074086419753086,0,0,0.06074086419753086,27.7585749382716,0)" xlink:href="#aV"/><use transform="matrix(0.06074086419753086,0,0,0.06074086419753086,33.83266135802469,0)" xlink:href="#be"/><use transform="matrix(0.06074086419753086,0,0,0.06074086419753086,45.98083419753086,0)" xlink:href="#bf"/><use transform="matrix(0.06074086419753086,0,0,0.06074086419753086,53.20899703703704,0)" xlink:href="#bh"/></g><g id="D"><use transform="matrix(0.06074086419753086,0,0,0.06074086419753086,0,0)" xlink:href="#bE"/><use transform="matrix(0.06074086419753086,0,0,0.06074086419753086,15.731883827160493,0)" xlink:href="#bf"/><use transform="matrix(0.06074086419753086,0,0,0.06074086419753086,22.960046666666663,0)" xlink:href="#bc"/><use transform="matrix(0.06074086419753086,0,0,0.06074086419753086,27.7585749382716,0)" xlink:href="#aV"/><use transform="matrix(0.06074086419753086,0,0,0.06074086419753086,33.83266135802469,0)" xlink:href="#be"/><use transform="matrix(0.06074086419753086,0,0,0.06074086419753086,45.98083419753086,0)" xlink:href="#bf"/><use transform="matrix(0.06074086419753086,0,0,0.06074086419753086,51.994179753086414,0)" xlink:href="#aU"/><use transform="matrix(0.06074086419753086,0,0,0.06074086419753086,58.0682661728395,0)" xlink:href="#bm"/><use transform="matrix(0.06074086419753086,0,0,0.06074086419753086,69.00162172839505,0)" xlink:href="#aV"/><use transform="matrix(0.06074086419753086,0,0,0.06074086419753086,75.07570814814814,0)" xlink:href="#be"/><use transform="matrix(0.06074086419753086,0,0,0.06074086419753086,87.22388098765431,0)" xlink:href="#aS"/><use transform="matrix(0.06074086419753086,0,0,0.06074086419753086,99.37205382716049,0)" xlink:href="#bn"/><use transform="matrix(0.06074086419753086,0,0,0.06074086419753086,106.60021666666665,0)" xlink:href="#bo"/></g><g id="E"><use transform="matrix(0.06074086419753086,0,0,0.06074086419753086,0,0)" xlink:href="#bg"/><use transform="matrix(0.06074086419753086,0,0,0.06074086419753086,6.074086419753086,0)" xlink:href="#bc"/><use transform="matrix(0.06074086419753086,0,0,0.06074086419753086,10.872614691358024,0)" xlink:href="#bd"/><use transform="matrix(0.06074086419753086,0,0,0.06074086419753086,15.67114296296296,0)" xlink:href="#be"/><use transform="matrix(0.06074086419753086,0,0,0.06074086419753086,27.819315802469134,0)" xlink:href="#bf"/><use transform="matrix(0.06074086419753086,0,0,0.06074086419753086,33.832661358024694,0)" xlink:href="#aU"/><use transform="matrix(0.06074086419753086,0,0,0.06074086419753086,39.90674777777778,0)" xlink:href="#bg"/><use transform="matrix(0.06074086419753086,0,0,0.06074086419753086,45.98083419753087,0)" xlink:href="#bc"/><use transform="matrix(0.06074086419753086,0,0,0.06074086419753086,50.779362469135805,0)" xlink:href="#bd"/><use transform="matrix(0.06074086419753086,0,0,0.06074086419753086,55.57789074074074,0)" xlink:href="#be"/><use transform="matrix(0.06074086419753086,0,0,0.06074086419753086,67.72606358024692,0)" xlink:href="#bn"/><use transform="matrix(0.06074086419753086,0,0,0.06074086419753086,74.95422641975308,0)" xlink:href="#bE"/><use transform="matrix(0.06074086419753086,0,0,0.06074086419753086,90.68611024691357,0)" xlink:href="#bf"/><use transform="matrix(0.06074086419753086,0,0,0.06074086419753086,97.91427308641974,0)" xlink:href="#bc"/><use transform="matrix(0.06074086419753086,0,0,0.06074086419753086,102.71280135802468,0)" xlink:href="#aV"/><use transform="matrix(0.06074086419753086,0,0,0.06074086419753086,108.78688777777776,0)" xlink:href="#be"/><use transform="matrix(0.06074086419753086,0,0,0.06074086419753086,120.93506061728394,0)" xlink:href="#bf"/><use transform="matrix(0.06074086419753086,0,0,0.06074086419753086,126.9484061728395,0)" xlink:href="#aU"/><use transform="matrix(0.06074086419753086,0,0,0.06074086419753086,133.02249259259256,0)" xlink:href="#bE"/><use transform="matrix(0.06074086419753086,0,0,0.06074086419753086,148.75437641975304,0)" xlink:href="#bf"/><use transform="matrix(0.06074086419753086,0,0,0.06074086419753086,155.98253925925923,0)" xlink:href="#bc"/><use transform="matrix(0.06074086419753086,0,0,0.06074086419753086,160.78106753086416,0)" xlink:href="#aV"/><use transform="matrix(0.06074086419753086,0,0,0.06074086419753086,166.85515395061725,0)" xlink:href="#be"/><use transform="matrix(0.06074086419753086,0,0,0.06074086419753086,179.00332679012342,0)" xlink:href="#bn"/><use transform="matrix(0.06074086419753086,0,0,0.06074086419753086,186.2314896296296,0)" xlink:href="#bo"/><use transform="matrix(0.06074086419753086,0,0,0.06074086419753086,193.4596524691358,0)" xlink:href="#bo"/></g><path fill="#282c33" d="M185-189c-5-48-123-54-124 2 14 75 158 14 163 119 3 78-121 87-175 55-17-10-28-26-33-46l33-7c5 56 141 63 141-1 0-78-155-14-162-118-5-82 145-84 179-34 5 7 8 16 11 25" id="bF"/><g id="F"><use transform="matrix(0.06074086419753086,0,0,0.06074086419753086,0,0)" xlink:href="#bF"/><use transform="matrix(0.06074086419753086,0,0,0.06074086419753086,14.577807407407406,0)" xlink:href="#aV"/><use transform="matrix(0.06074086419753086,0,0,0.06074086419753086,20.651893827160492,0)" xlink:href="#aR"/><use transform="matrix(0.06074086419753086,0,0,0.06074086419753086,32.800066666666666,0)" xlink:href="#bf"/><use transform="matrix(0.06074086419753086,0,0,0.06074086419753086,40.028229506172835,0)" xlink:href="#aV"/></g><path fill="#282c33" d="M233-177c-1 41-23 64-60 70L243 0h-38l-65-103H63V0H30v-248c88 3 205-21 203 71zM63-129c60-2 137 13 137-47 0-61-80-42-137-45v92" id="bG"/><path fill="#282c33" d="M84 4C-5 8 30-112 23-190h32v120c0 31 7 50 39 49 72-2 45-101 50-169h31l1 190h-30c-1-10 1-25-2-33-11 22-28 36-60 37" id="bH"/><g id="G"><use transform="matrix(0.06074086419753086,0,0,0.06074086419753086,0,0)" xlink:href="#bG"/><use transform="matrix(0.06074086419753086,0,0,0.06074086419753086,15.731883827160493,0)" xlink:href="#be"/><use transform="matrix(0.06074086419753086,0,0,0.06074086419753086,27.880056666666665,0)" xlink:href="#aV"/><use transform="matrix(0.06074086419753086,0,0,0.06074086419753086,33.95414308641975,0)" xlink:href="#bH"/><use transform="matrix(0.06074086419753086,0,0,0.06074086419753086,46.10231592592592,0)" xlink:href="#bf"/><use transform="matrix(0.06074086419753086,0,0,0.06074086419753086,53.33047876543209,0)" xlink:href="#bq"/></g><path fill="#282c33" d="M16-82v-28h88v28H16" id="bI"/><path fill="#282c33" d="M18-27v-27l151-64-151-65v-27l175 74v36" id="bJ"/><path fill="#282c33" d="M127-220V0H93v-220H8v-28h204v28h-85" id="bK"/><g id="H"><use transform="matrix(0.06074086419753086,0,0,0.06074086419753086,0,0)" xlink:href="#bm"/><use transform="matrix(0.06074086419753086,0,0,0.06074086419753086,10.933355555555554,0)" xlink:href="#aY"/><use transform="matrix(0.06074086419753086,0,0,0.06074086419753086,23.081528395061724,0)" xlink:href="#bH"/><use transform="matrix(0.06074086419753086,0,0,0.06074086419753086,35.2297012345679,0)" xlink:href="#bf"/><use transform="matrix(0.06074086419753086,0,0,0.06074086419753086,42.45786407407407,0)" xlink:href="#bp"/><use transform="matrix(0.06074086419753086,0,0,0.06074086419753086,53.39121962962962,0)" xlink:href="#be"/><use transform="matrix(0.06074086419753086,0,0,0.06074086419753086,65.53939246913579,0)" xlink:href="#bI"/><use transform="matrix(0.06074086419753086,0,0,0.06074086419753086,72.76755530864196,0)" xlink:href="#bJ"/><use transform="matrix(0.06074086419753086,0,0,0.06074086419753086,85.52313679012344,0)" xlink:href="#bp"/><use transform="matrix(0.06074086419753086,0,0,0.06074086419753086,96.456492345679,0)" xlink:href="#bH"/><use transform="matrix(0.06074086419753086,0,0,0.06074086419753086,108.60466518518517,0)" xlink:href="#bf"/><use transform="matrix(0.06074086419753086,0,0,0.06074086419753086,115.83282802469134,0)" xlink:href="#bf"/><use transform="matrix(0.06074086419753086,0,0,0.06074086419753086,123.0609908641975,0)" xlink:href="#be"/><use transform="matrix(0.06074086419753086,0,0,0.06074086419753086,135.20916370370367,0)" xlink:href="#bq"/><use transform="matrix(0.06074086419753086,0,0,0.06074086419753086,147.35733654320984,0)" xlink:href="#aV"/><use transform="matrix(0.06074086419753086,0,0,0.06074086419753086,153.43142296296293,0)" xlink:href="#bK"/><use transform="matrix(0.06074086419753086,0,0,0.06074086419753086,165.9440409876543,0)" xlink:href="#bc"/><use transform="matrix(0.06074086419753086,0,0,0.06074086419753086,170.74256925925923,0)" xlink:href="#aQ"/><use transform="matrix(0.06074086419753086,0,0,0.06074086419753086,188.90408765432096,0)" xlink:href="#be"/></g><path fill="#282c33" d="M18-100v-36l175-74v27L42-118l151 64v27" id="bL"/><use transform="matrix(0.06074086419753086,0,0,0.06074086419753086,0,0)" xlink:href="#bL" id="I"/><g id="J"><use transform="matrix(0.06074086419753086,0,0,0.06074086419753086,0,0)" xlink:href="#bm"/><use transform="matrix(0.06074086419753086,0,0,0.06074086419753086,10.933355555555554,0)" xlink:href="#aY"/><use transform="matrix(0.06074086419753086,0,0,0.06074086419753086,23.081528395061724,0)" xlink:href="#bH"/><use transform="matrix(0.06074086419753086,0,0,0.06074086419753086,35.2297012345679,0)" xlink:href="#bf"/><use transform="matrix(0.06074086419753086,0,0,0.06074086419753086,42.45786407407407,0)" xlink:href="#bp"/><use transform="matrix(0.06074086419753086,0,0,0.06074086419753086,53.39121962962962,0)" xlink:href="#be"/><use transform="matrix(0.06074086419753086,0,0,0.06074086419753086,65.53939246913579,0)" xlink:href="#bI"/><use transform="matrix(0.06074086419753086,0,0,0.06074086419753086,72.76755530864196,0)" xlink:href="#bJ"/><use transform="matrix(0.06074086419753086,0,0,0.06074086419753086,85.52313679012344,0)" xlink:href="#bg"/><use transform="matrix(0.06074086419753086,0,0,0.06074086419753086,91.59722320987653,0)" xlink:href="#bc"/><use transform="matrix(0.06074086419753086,0,0,0.06074086419753086,96.39575148148147,0)" xlink:href="#bq"/><use transform="matrix(0.06074086419753086,0,0,0.06074086419753086,108.54392432098764,0)" xlink:href="#aR"/><use transform="matrix(0.06074086419753086,0,0,0.06074086419753086,120.69209716049382,0)" xlink:href="#bd"/><use transform="matrix(0.06074086419753086,0,0,0.06074086419753086,125.49062543209875,0)" xlink:href="#bK"/><use transform="matrix(0.06074086419753086,0,0,0.06074086419753086,138.0032434567901,0)" xlink:href="#bc"/><use transform="matrix(0.06074086419753086,0,0,0.06074086419753086,142.80177172839504,0)" xlink:href="#aQ"/><use transform="matrix(0.06074086419753086,0,0,0.06074086419753086,160.96329012345677,0)" xlink:href="#be"/></g><g id="K"><use transform="matrix(0.06074086419753086,0,0,0.06074086419753086,0,0)" xlink:href="#bg"/><use transform="matrix(0.06074086419753086,0,0,0.06074086419753086,6.074086419753086,0)" xlink:href="#aY"/><use transform="matrix(0.06074086419753086,0,0,0.06074086419753086,18.222259259259257,0)" xlink:href="#bf"/></g><g id="L"><use transform="matrix(0.06074086419753086,0,0,0.06074086419753086,0,0)" xlink:href="#bn"/><use transform="matrix(0.06074086419753086,0,0,0.06074086419753086,7.228162839506172,0)" xlink:href="#bf"/><use transform="matrix(0.06074086419753086,0,0,0.06074086419753086,14.456325679012345,0)" xlink:href="#aY"/><use transform="matrix(0.06074086419753086,0,0,0.06074086419753086,26.60449851851852,0)" xlink:href="#bE"/></g><path fill="#282c33" d="M68-38c1 34 0 65-14 84H32c9-13 17-26 17-46H33v-38h35" id="bM"/><g id="M"><use transform="matrix(0.06074086419753086,0,0,0.06074086419753086,0,0)" xlink:href="#bc"/><use transform="matrix(0.06074086419753086,0,0,0.06074086419753086,4.798528271604938,0)" xlink:href="#bM"/></g><g id="N"><use transform="matrix(0.06074086419753086,0,0,0.06074086419753086,0,0)" xlink:href="#bp"/><use transform="matrix(0.06074086419753086,0,0,0.06074086419753086,10.933355555555554,0)" xlink:href="#aY"/><use transform="matrix(0.06074086419753086,0,0,0.06074086419753086,23.081528395061724,0)" xlink:href="#bd"/></g><use transform="matrix(0.06074086419753086,0,0,0.06074086419753086,0,0)" xlink:href="#aX" id="O"/><use transform="matrix(0.06074086419753086,0,0,0.06074086419753086,0,0)" xlink:href="#bs" id="P"/><g id="Q"><use transform="matrix(0.06074086419753086,0,0,0.06074086419753086,0,0)" xlink:href="#bm"/><use transform="matrix(0.06074086419753086,0,0,0.06074086419753086,10.933355555555554,0)" xlink:href="#aY"/><use transform="matrix(0.06074086419753086,0,0,0.06074086419753086,23.081528395061724,0)" xlink:href="#bH"/><use transform="matrix(0.06074086419753086,0,0,0.06074086419753086,35.2297012345679,0)" xlink:href="#bf"/><use transform="matrix(0.06074086419753086,0,0,0.06074086419753086,42.45786407407407,0)" xlink:href="#bp"/><use transform="matrix(0.06074086419753086,0,0,0.06074086419753086,53.39121962962962,0)" xlink:href="#be"/><use transform="matrix(0.06074086419753086,0,0,0.06074086419753086,65.53939246913579,0)" xlink:href="#bo"/></g><g id="R"><use transform="matrix(0.06074086419753086,0,0,0.06074086419753086,0,0)" xlink:href="#bi"/><use transform="matrix(0.06074086419753086,0,0,0.06074086419753086,14.577807407407406,0)" xlink:href="#aY"/><use transform="matrix(0.06074086419753086,0,0,0.06074086419753086,26.72598024691358,0)" xlink:href="#bc"/><use transform="matrix(0.06074086419753086,0,0,0.06074086419753086,31.524508518518516,0)" xlink:href="#bq"/><use transform="matrix(0.06074086419753086,0,0,0.06074086419753086,43.67268135802469,0)" xlink:href="#aV"/></g><g id="S"><use transform="matrix(0.06074086419753086,0,0,0.06074086419753086,0,0)" xlink:href="#bp"/><use transform="matrix(0.06074086419753086,0,0,0.06074086419753086,10.933355555555554,0)" xlink:href="#bH"/><use transform="matrix(0.06074086419753086,0,0,0.06074086419753086,23.081528395061724,0)" xlink:href="#bf"/><use transform="matrix(0.06074086419753086,0,0,0.06074086419753086,30.309691234567897,0)" xlink:href="#bf"/><use transform="matrix(0.06074086419753086,0,0,0.06074086419753086,37.53785407407407,0)" xlink:href="#be"/><use transform="matrix(0.06074086419753086,0,0,0.06074086419753086,49.68602691358024,0)" xlink:href="#bq"/><use transform="matrix(0.06074086419753086,0,0,0.06074086419753086,61.834199753086416,0)" xlink:href="#aV"/><use transform="matrix(0.06074086419753086,0,0,0.06074086419753086,67.9082861728395,0)" xlink:href="#bh"/></g><use transform="matrix(0.06074086419753086,0,0,0.06074086419753086,0,0)" xlink:href="#aX" id="T"/><path fill="#282c33" d="M68-36c1 33-1 63-14 82H32c9-13 17-26 17-46H33v-36h35zM33-154v-36h35v36H33" id="bN"/><g id="U"><use transform="matrix(0.06074086419753086,0,0,0.06074086419753086,0,0)" xlink:href="#bk"/><use transform="matrix(0.06074086419753086,0,0,0.06074086419753086,7.288903703703703,0)" xlink:href="#bN"/></g><g id="V"><use transform="matrix(0.06074086419753086,0,0,0.06074086419753086,0,0)" xlink:href="#bp"/><use transform="matrix(0.06074086419753086,0,0,0.06074086419753086,10.933355555555554,0)" xlink:href="#bj"/><use transform="matrix(0.06074086419753086,0,0,0.06074086419753086,23.081528395061724,0)" xlink:href="#aR"/><use transform="matrix(0.06074086419753086,0,0,0.06074086419753086,35.2297012345679,0)" xlink:href="#bf"/></g><g id="W"><use transform="matrix(0.06074086419753086,0,0,0.06074086419753086,0,0)" xlink:href="#bq"/><use transform="matrix(0.06074086419753086,0,0,0.06074086419753086,12.148172839506172,0)" xlink:href="#be"/><use transform="matrix(0.06074086419753086,0,0,0.06074086419753086,24.296345679012344,0)" xlink:href="#aW"/><use transform="matrix(0.06074086419753086,0,0,0.06074086419753086,35.2297012345679,0)" xlink:href="#aV"/><use transform="matrix(0.06074086419753086,0,0,0.06074086419753086,41.303787654320985,0)" xlink:href="#bh"/></g><g id="X"><use transform="matrix(0.06074086419753086,0,0,0.06074086419753086,0,0)" xlink:href="#bq"/><use transform="matrix(0.06074086419753086,0,0,0.06074086419753086,12.148172839506172,0)" xlink:href="#be"/><use transform="matrix(0.06074086419753086,0,0,0.06074086419753086,24.296345679012344,0)" xlink:href="#aW"/><use transform="matrix(0.06074086419753086,0,0,0.06074086419753086,35.2297012345679,0)" xlink:href="#aV"/><use transform="matrix(0.06074086419753086,0,0,0.06074086419753086,41.303787654320985,0)" xlink:href="#bK"/><use transform="matrix(0.06074086419753086,0,0,0.06074086419753086,52.17640234567901,0)" xlink:href="#be"/><use transform="matrix(0.06074086419753086,0,0,0.06074086419753086,64.32457518518518,0)" xlink:href="#bf"/><use transform="matrix(0.06074086419753086,0,0,0.06074086419753086,71.55273802469135,0)" xlink:href="#bf"/><use transform="matrix(0.06074086419753086,0,0,0.06074086419753086,78.78090086419752,0)" xlink:href="#aR"/><use transform="matrix(0.06074086419753086,0,0,0.06074086419753086,90.9290737037037,0)" xlink:href="#bc"/><use transform="matrix(0.06074086419753086,0,0,0.06074086419753086,95.72760197530863,0)" xlink:href="#bq"/><use transform="matrix(0.06074086419753086,0,0,0.06074086419753086,107.8757748148148,0)" xlink:href="#bn"/><use transform="matrix(0.06074086419753086,0,0,0.06074086419753086,115.10393765432097,0)" xlink:href="#bp"/><use transform="matrix(0.06074086419753086,0,0,0.06074086419753086,126.03729320987654,0)" xlink:href="#bH"/><use transform="matrix(0.06074086419753086,0,0,0.06074086419753086,138.18546604938268,0)" xlink:href="#bf"/><use transform="matrix(0.06074086419753086,0,0,0.06074086419753086,145.41362888888887,0)" xlink:href="#bf"/><use transform="matrix(0.06074086419753086,0,0,0.06074086419753086,152.64179172839505,0)" xlink:href="#be"/><use transform="matrix(0.06074086419753086,0,0,0.06074086419753086,164.78996456790122,0)" xlink:href="#bq"/><use transform="matrix(0.06074086419753086,0,0,0.06074086419753086,176.9381374074074,0)" xlink:href="#aV"/></g><g id="Y"><use transform="matrix(0.06074086419753086,0,0,0.06074086419753086,0,0)" xlink:href="#bm"/><use transform="matrix(0.06074086419753086,0,0,0.06074086419753086,10.933355555555554,0)" xlink:href="#aY"/><use transform="matrix(0.06074086419753086,0,0,0.06074086419753086,23.081528395061724,0)" xlink:href="#bH"/><use transform="matrix(0.06074086419753086,0,0,0.06074086419753086,35.2297012345679,0)" xlink:href="#bf"/><use transform="matrix(0.06074086419753086,0,0,0.06074086419753086,42.45786407407407,0)" xlink:href="#bp"/><use transform="matrix(0.06074086419753086,0,0,0.06074086419753086,53.39121962962962,0)" xlink:href="#be"/><use transform="matrix(0.06074086419753086,0,0,0.06074086419753086,65.53939246913579,0)" xlink:href="#aU"/><use transform="matrix(0.06074086419753086,0,0,0.06074086419753086,71.61347888888888,0)" xlink:href="#bf"/><use transform="matrix(0.06074086419753086,0,0,0.06074086419753086,78.84164172839505,0)" xlink:href="#be"/><use transform="matrix(0.06074086419753086,0,0,0.06074086419753086,90.98981456790122,0)" xlink:href="#bm"/><use transform="matrix(0.06074086419753086,0,0,0.06074086419753086,101.92317012345677,0)" xlink:href="#be"/><use transform="matrix(0.06074086419753086,0,0,0.06074086419753086,114.07134296296294,0)" xlink:href="#aV"/></g><path fill="#282c33" d="M205 0l-28-72H64L36 0H1l101-248h38L239 0h-34zm-38-99l-47-123c-12 45-31 82-46 123h93" id="bO"/><path fill="#282c33" d="M26 75v-336h71v23H56V52h41v23H26" id="bP"/><path fill="#282c33" d="M3 75V52h41v-290H3v-23h71V75H3" id="bQ"/><g id="Z"><use transform="matrix(0.06074086419753086,0,0,0.06074086419753086,0,0)" xlink:href="#by"/><use transform="matrix(0.06074086419753086,0,0,0.06074086419753086,12.148172839506172,0)" xlink:href="#be"/><use transform="matrix(0.06074086419753086,0,0,0.06074086419753086,24.296345679012344,0)" xlink:href="#bm"/><use transform="matrix(0.06074086419753086,0,0,0.06074086419753086,35.2297012345679,0)" xlink:href="#aV"/><use transform="matrix(0.06074086419753086,0,0,0.06074086419753086,41.303787654320985,0)" xlink:href="#bO"/><use transform="matrix(0.06074086419753086,0,0,0.06074086419753086,55.88159506172839,0)" xlink:href="#bf"/><use transform="matrix(0.06074086419753086,0,0,0.06074086419753086,63.10975790123456,0)" xlink:href="#be"/><use transform="matrix(0.06074086419753086,0,0,0.06074086419753086,75.25793074074073,0)" xlink:href="#aR"/><use transform="matrix(0.06074086419753086,0,0,0.06074086419753086,87.4061035802469,0)" xlink:href="#bP"/><use transform="matrix(0.06074086419753086,0,0,0.06074086419753086,93.48019,0)" xlink:href="#bp"/><use transform="matrix(0.06074086419753086,0,0,0.06074086419753086,104.41354555555554,0)" xlink:href="#bH"/><use transform="matrix(0.06074086419753086,0,0,0.06074086419753086,116.56171839506172,0)" xlink:href="#bf"/><use transform="matrix(0.06074086419753086,0,0,0.06074086419753086,123.78988123456789,0)" xlink:href="#bf"/><use transform="matrix(0.06074086419753086,0,0,0.06074086419753086,131.01804407407406,0)" xlink:href="#be"/><use transform="matrix(0.06074086419753086,0,0,0.06074086419753086,143.16621691358023,0)" xlink:href="#bq"/><use transform="matrix(0.06074086419753086,0,0,0.06074086419753086,155.3143897530864,0)" xlink:href="#aV"/><use transform="matrix(0.06074086419753086,0,0,0.06074086419753086,161.3884761728395,0)" xlink:href="#bQ"/></g><path fill="#282c33" d="M18-150v-26h174v26H18zm0 90v-26h174v26H18" id="bR"/><use transform="matrix(0.06074086419753086,0,0,0.06074086419753086,0,0)" xlink:href="#bR" id="aa"/><g id="ab"><use transform="matrix(0.06074086419753086,0,0,0.06074086419753086,0,0)" xlink:href="#bq"/><use transform="matrix(0.06074086419753086,0,0,0.06074086419753086,12.148172839506172,0)" xlink:href="#be"/><use transform="matrix(0.06074086419753086,0,0,0.06074086419753086,24.296345679012344,0)" xlink:href="#aW"/><use transform="matrix(0.06074086419753086,0,0,0.06074086419753086,35.2297012345679,0)" xlink:href="#aV"/><use transform="matrix(0.06074086419753086,0,0,0.06074086419753086,41.303787654320985,0)" xlink:href="#bN"/></g><path fill="#282c33" d="M63-70H37l-4-178h34zM33 0v-35h34V0H33" id="bS"/><path fill="#282c33" d="M179-190L93 31C79 59 56 82 12 73V49c39 6 53-20 64-50L1-190h34L92-34l54-156h33" id="bT"/><g id="ac"><use transform="matrix(0.06074086419753086,0,0,0.06074086419753086,0,0)" xlink:href="#bS"/><use transform="matrix(0.06074086419753086,0,0,0.06074086419753086,6.074086419753086,0)" xlink:href="#aX"/><use transform="matrix(0.06074086419753086,0,0,0.06074086419753086,10.872614691358024,0)" xlink:href="#aY"/><use transform="matrix(0.06074086419753086,0,0,0.06074086419753086,23.020787530864197,0)" xlink:href="#aZ"/><use transform="matrix(0.06074086419753086,0,0,0.06074086419753086,35.16896037037037,0)" xlink:href="#bi"/><use transform="matrix(0.06074086419753086,0,0,0.06074086419753086,49.74676777777778,0)" xlink:href="#aR"/><use transform="matrix(0.06074086419753086,0,0,0.06074086419753086,61.89494061728395,0)" xlink:href="#aV"/><use transform="matrix(0.06074086419753086,0,0,0.06074086419753086,67.96902703703704,0)" xlink:href="#bj"/><use transform="matrix(0.06074086419753086,0,0,0.06074086419753086,80.11719987654321,0)" xlink:href="#aU"/><use transform="matrix(0.06074086419753086,0,0,0.06074086419753086,86.1912862962963,0)" xlink:href="#be"/><use transform="matrix(0.06074086419753086,0,0,0.06074086419753086,98.33945913580247,0)" xlink:href="#aQ"/><use transform="matrix(0.06074086419753086,0,0,0.06074086419753086,116.50097753086419,0)" xlink:href="#aS"/><use transform="matrix(0.06074086419753086,0,0,0.06074086419753086,128.64915037037036,0)" xlink:href="#aV"/><use transform="matrix(0.06074086419753086,0,0,0.06074086419753086,134.72323679012345,0)" xlink:href="#bT"/><use transform="matrix(0.06074086419753086,0,0,0.06074086419753086,145.656592345679,0)" xlink:href="#bn"/><use transform="matrix(0.06074086419753086,0,0,0.06074086419753086,152.88475518518518,0)" xlink:href="#bo"/></g><g id="ad"><use transform="matrix(0.06074086419753086,0,0,0.06074086419753086,0,0)" xlink:href="#bx"/><use transform="matrix(0.06074086419753086,0,0,0.06074086419753086,14.577807407407406,0)" xlink:href="#bq"/><use transform="matrix(0.06074086419753086,0,0,0.06074086419753086,26.72598024691358,0)" xlink:href="#bp"/><use transform="matrix(0.06074086419753086,0,0,0.06074086419753086,37.65933580246913,0)" xlink:href="#bj"/><use transform="matrix(0.06074086419753086,0,0,0.06074086419753086,49.8075086419753,0)" xlink:href="#aR"/><use transform="matrix(0.06074086419753086,0,0,0.06074086419753086,61.95568148148148,0)" xlink:href="#bq"/><use transform="matrix(0.06074086419753086,0,0,0.06074086419753086,74.10385432098765,0)" xlink:href="#aV"/><use transform="matrix(0.06074086419753086,0,0,0.06074086419753086,80.17794074074074,0)" xlink:href="#be"/><use transform="matrix(0.06074086419753086,0,0,0.06074086419753086,92.32611358024691,0)" xlink:href="#by"/><use transform="matrix(0.06074086419753086,0,0,0.06074086419753086,104.47428641975308,0)" xlink:href="#bb"/><use transform="matrix(0.06074086419753086,0,0,0.06074086419753086,117.77653567901234,0)" xlink:href="#aY"/><use transform="matrix(0.06074086419753086,0,0,0.06074086419753086,129.92470851851851,0)" xlink:href="#bf"/><use transform="matrix(0.06074086419753086,0,0,0.06074086419753086,137.1528713580247,0)" xlink:href="#be"/><use transform="matrix(0.06074086419753086,0,0,0.06074086419753086,149.30104419753087,0)" xlink:href="#bm"/><use transform="matrix(0.06074086419753086,0,0,0.06074086419753086,160.23439975308642,0)" xlink:href="#aV"/><use transform="matrix(0.06074086419753086,0,0,0.06074086419753086,166.3084861728395,0)" xlink:href="#bs"/><use transform="matrix(0.06074086419753086,0,0,0.06074086419753086,172.3825725925926,0)" xlink:href="#bs"/><use transform="matrix(0.06074086419753086,0,0,0.06074086419753086,178.45665901234568,0)" xlink:href="#aS"/><use transform="matrix(0.06074086419753086,0,0,0.06074086419753086,190.60483185185186,0)" xlink:href="#bf"/><use transform="matrix(0.06074086419753086,0,0,0.06074086419753086,197.83299469135804,0)" xlink:href="#aY"/><use transform="matrix(0.06074086419753086,0,0,0.06074086419753086,209.9811675308642,0)" xlink:href="#bp"/><use transform="matrix(0.06074086419753086,0,0,0.06074086419753086,220.91452308641976,0)" xlink:href="#be"/><use transform="matrix(0.06074086419753086,0,0,0.06074086419753086,233.06269592592594,0)" xlink:href="#bm"/><use transform="matrix(0.06074086419753086,0,0,0.06074086419753086,243.9960514814815,0)" xlink:href="#bm"/><use transform="matrix(0.06074086419753086,0,0,0.06074086419753086,254.929407037037,0)" xlink:href="#bn"/><use transform="matrix(0.06074086419753086,0,0,0.06074086419753086,262.1575698765432,0)" xlink:href="#aX"/><use transform="matrix(0.06074086419753086,0,0,0.06074086419753086,266.95609814814816,0)" xlink:href="#aY"/><use transform="matrix(0.06074086419753086,0,0,0.06074086419753086,279.10427098765433,0)" xlink:href="#aZ"/><use transform="matrix(0.06074086419753086,0,0,0.06074086419753086,291.2524438271605,0)" xlink:href="#bi"/><use transform="matrix(0.06074086419753086,0,0,0.06074086419753086,305.8302512345679,0)" xlink:href="#aR"/><use transform="matrix(0.06074086419753086,0,0,0.06074086419753086,317.9784240740741,0)" xlink:href="#aV"/><use transform="matrix(0.06074086419753086,0,0,0.06074086419753086,324.0525104938272,0)" xlink:href="#bj"/><use transform="matrix(0.06074086419753086,0,0,0.06074086419753086,336.20068333333336,0)" xlink:href="#bo"/></g><g id="ae"><use transform="matrix(0.06074086419753086,0,0,0.06074086419753086,0,0)" xlink:href="#ba"/><use transform="matrix(0.06074086419753086,0,0,0.06074086419753086,18.161518395061726,0)" xlink:href="#aR"/><use transform="matrix(0.06074086419753086,0,0,0.06074086419753086,30.3096912345679,0)" xlink:href="#aS"/><use transform="matrix(0.06074086419753086,0,0,0.06074086419753086,42.457864074074074,0)" xlink:href="#bD"/><use transform="matrix(0.06074086419753086,0,0,0.06074086419753086,62.623830987654316,0)" xlink:href="#bf"/><use transform="matrix(0.06074086419753086,0,0,0.06074086419753086,69.85199382716048,0)" xlink:href="#bc"/><use transform="matrix(0.06074086419753086,0,0,0.06074086419753086,74.65052209876542,0)" xlink:href="#aV"/><use transform="matrix(0.06074086419753086,0,0,0.06074086419753086,80.72460851851851,0)" xlink:href="#be"/><use transform="matrix(0.06074086419753086,0,0,0.06074086419753086,92.87278135802468,0)" xlink:href="#bf"/><use transform="matrix(0.06074086419753086,0,0,0.06074086419753086,98.88612691358023,0)" xlink:href="#aU"/><use transform="matrix(0.06074086419753086,0,0,0.06074086419753086,104.96021333333331,0)" xlink:href="#bm"/><use transform="matrix(0.06074086419753086,0,0,0.06074086419753086,115.89356888888886,0)" xlink:href="#aV"/><use transform="matrix(0.06074086419753086,0,0,0.06074086419753086,121.96765530864195,0)" xlink:href="#be"/><use transform="matrix(0.06074086419753086,0,0,0.06074086419753086,134.11582814814813,0)" xlink:href="#aS"/><use transform="matrix(0.06074086419753086,0,0,0.06074086419753086,146.2640009876543,0)" xlink:href="#bn"/><use transform="matrix(0.06074086419753086,0,0,0.06074086419753086,153.49216382716048,0)" xlink:href="#bo"/></g><path fill="#282c33" d="M230 0l2-204L168 0h-37L68-204 70 0H24v-248h70l56 185 57-185h69V0h-46" id="bU"/><path fill="#282c33" d="M24-248c93 1 206-16 204 79-1 75-69 88-152 82V0H24v-248zm52 121c47 0 100 7 100-41 0-47-54-39-100-39v80" id="bV"/><path fill="#282c33" d="M24 0v-248h52V0H24" id="bW"/><g id="af"><use transform="matrix(0.0669137037037037,0,0,0.0669137037037037,0,0)" xlink:href="#bU"/><use transform="matrix(0.0669137037037037,0,0,0.0669137037037037,20.007197407407407,0)" xlink:href="#bV"/><use transform="matrix(0.0669137037037037,0,0,0.0669137037037037,36.06648629629629,0)" xlink:href="#bW"/></g><path fill="#282c33" d="M4 7l51-268h42L46 7H4" id="bX"/><use transform="matrix(0.0669137037037037,0,0,0.0669137037037037,0,0)" xlink:href="#bX" id="ag"/><g id="ah"><use transform="matrix(0.0669137037037037,0,0,0.0669137037037037,0,0)" xlink:href="#bV"/><use transform="matrix(0.0669137037037037,0,0,0.0669137037037037,16.059288888888887,0)" xlink:href="#at"/><use transform="matrix(0.0669137037037037,0,0,0.0669137037037037,25.427207407407405,0)" xlink:href="#ap"/><use transform="matrix(0.0669137037037037,0,0,0.0669137037037037,40.08130851851851,0)" xlink:href="#ay"/><use transform="matrix(0.0669137037037037,0,0,0.0669137037037037,53.464049259259255,0)" xlink:href="#av"/><use transform="matrix(0.0669137037037037,0,0,0.0669137037037037,66.84679,0)" xlink:href="#az"/><use transform="matrix(0.0669137037037037,0,0,0.0669137037037037,80.22953074074074,0)" xlink:href="#az"/></g><path fill="#282c33" d="M160-152l-12 59h37v26h-43L128 0h-28l14-67H60L46 0H20l13-67H6v-26h33l13-59H15v-26h42l15-67h27l-15 67h54l15-67h27l-14 67h28v26h-34zm-81 0L66-93h55l12-59H79" id="bY"/><use transform="matrix(0.0669137037037037,0,0,0.0669137037037037,0,0)" xlink:href="#bY" id="ai"/></defs></g></svg>