<svg xmlns="http://www.w3.org/2000/svg" xmlns:xlink="http://www.w3.org/1999/xlink" xmlns:lucid="lucid" width="1840" height="1808.58"><g transform="translate(-15.433070866141634 -111.41732283464557)" lucid:page-tab-id="0_0"><path d="M0 0h1870.87v2581.67H0z" fill="#fff"/><path d="M35.43 706a6 6 0 0 1 6-6h1788a6 6 0 0 1 6 6v1188a6 6 0 0 1-6 6h-1788a6 6 0 0 1-6-6z" stroke="#1071e5" stroke-width="3" fill="#fff"/><use xlink:href="#a" transform="matrix(1,0,0,1,47.433070866141634,712) translate(781.5925925925926 590.9583333333334)"/><path d="M276 311.42c24.3 0 44 17.9 44 40s-19.7 40-44 40H144c-24.3 0-44-17.9-44-40s19.7-40 44-40z" stroke="#5e5e5e" stroke-width="3" fill="#fff"/><use xlink:href="#b" transform="matrix(1,0,0,1,105.00000000000001,316.4173228346456) translate(81.57407407407408 39.65277777777778)"/><path d="M380 297.42a6 6 0 0 1 6-6h228a6 6 0 0 1 6 6v108a6 6 0 0 1-6 6H386a6 6 0 0 1-6-6z" stroke="#5e5e5e" stroke-width="3" fill="#fff"/><use xlink:href="#c" transform="matrix(1,0,0,1,391.9999999999999,303.4173228346456) translate(22.93241969135802 53.49336888888889)"/><path d="M322.5 351.42h37.53" stroke="#5e5e5e" stroke-width="2" fill="none"/><path d="M322.53 352.42h-1.08l.05-1-.05-1h1.08z" stroke="#5e5e5e" stroke-width=".05" fill="#5e5e5e"/><path d="M375.3 351.42l-14.27 4.63v-9.27z" stroke="#5e5e5e" stroke-width="2" fill="#5e5e5e"/><path d="M400 137.42a6 6 0 0 1 6-6h168a6 6 0 0 1 6 6v96c-30.06-17.04-48.78-17.04-60.12-17.04-18 0-41.94 17.04-59.94 17.04-11.16 0-30.06 0-59.94-17.04z" stroke="#5e5e5e" stroke-width="3" fill="#fff"/><path d="M410 146.42a6 6 0 0 1 6-6h168a6 6 0 0 1 6 6v96c-30.06-17.04-48.78-17.04-60.12-17.04-18 0-41.94 17.04-59.94 17.04-11.16 0-30.06 0-59.94-17.04z" stroke="#5e5e5e" stroke-width="3" fill="#fff"/><path d="M420 155.42a6 6 0 0 1 6-6h168a6 6 0 0 1 6 6v96c-30.06-17.04-48.78-17.04-60.12-17.04-18 0-41.94 17.04-59.94 17.04-11.16 0-30.06 0-59.94-17.04z" stroke="#5e5e5e" stroke-width="3" fill="#fff"/><use xlink:href="#d" transform="matrix(1,0,0,1,425,154.41732283464557) translate(9.807407407407396 40.859722222222224)"/><path d="M500 248.94v22.5" stroke="#5e5e5e" stroke-width="2" fill="none"/><path d="M501 248.96h-2v-.65l2-.73z" stroke="#5e5e5e" stroke-width=".05" fill="#5e5e5e"/><path d="M500 286.72l-4.63-14.27h9.27z" stroke="#5e5e5e" stroke-width="2" fill="#5e5e5e"/><path d="M275.43 886a6 6 0 0 1 6-6h288a6 6 0 0 1 6 6v108a6 6 0 0 1-6 6h-288a6 6 0 0 1-6-6z" stroke="#5e5e5e" stroke-width="3" fill="#fff"/><use xlink:href="#e" transform="matrix(1,0,0,1,287.4330708661415,892) translate(5.97973166666668 53.49336888888889)"/><path d="M1095.43 886a6 6 0 0 1 6-6h288a6 6 0 0 1 6 6v108a6 6 0 0 1-6 6h-288a6 6 0 0 1-6-6z" stroke="#5e5e5e" stroke-width="3" fill="#fff"/><use xlink:href="#f" transform="matrix(1,0,0,1,1107.4330708661416,892) translate(67.81393141975309 53.49336888888889)"/><path d="M577.9 940h497.57" stroke="#5e5e5e" stroke-width="2" fill="none"/><path d="M577.92 941h-1.02v-2h1.02z" stroke="#5e5e5e" stroke-width=".05" fill="#5e5e5e"/><path d="M1090.73 940l-14.26 4.64v-9.28z" stroke="#5e5e5e" stroke-width="2" fill="#5e5e5e"/><path d="M1455.43 886a6 6 0 0 1 6-6h288a6 6 0 0 1 6 6v108a6 6 0 0 1-6 6h-288a6 6 0 0 1-6-6z" stroke="#5e5e5e" stroke-width="3" fill="#fff"/><use xlink:href="#g" transform="matrix(1,0,0,1,1467.433070866142,892) translate(30.03311388888889 53.49336888888888)"/><path d="M1397.9 940h37.57" stroke="#5e5e5e" stroke-width="2" fill="none"/><path d="M1397.92 941h-1.02v-2h1.02z" stroke="#5e5e5e" stroke-width=".05" fill="#5e5e5e"/><path d="M1450.73 940l-14.26 4.64v-9.28z" stroke="#5e5e5e" stroke-width="2" fill="#5e5e5e"/><path d="M315.43 1524.54a6 6 0 0 1 6-6h288a6 6 0 0 1 6 6v108a6 6 0 0 1-6 6h-288a6 6 0 0 1-6-6z" stroke="#5e5e5e" stroke-width="3" fill="#fff"/><use xlink:href="#h" transform="matrix(1,0,0,1,327.4330708661415,1530.5368926041597) translate(48.43759574074075 53.49336888888889)"/><path d="M55.43 1524.54a6 6 0 0 1 6-6h168a6 6 0 0 1 6 6v96c-30.06-17.04-48.78-17.04-60.12-17.04-18 0-41.93 17.04-59.93 17.04-11.16 0-30.06 0-59.94-17.04z" stroke="#5e5e5e" stroke-width="3" fill="#fff"/><path d="M65.43 1533.54a6 6 0 0 1 6-6h168a6 6 0 0 1 6 6v96c-30.06-17.04-48.78-17.04-60.12-17.04-18 0-41.93 17.04-59.93 17.04-11.16 0-30.06 0-59.94-17.04z" stroke="#5e5e5e" stroke-width="3" fill="#fff"/><path d="M75.43 1542.54a6 6 0 0 1 6-6h168a6 6 0 0 1 6 6v96c-30.06-17.04-48.78-17.04-60.12-17.04-18 0-41.93 17.04-59.93 17.04-11.16 0-30.06 0-59.94-17.04z" stroke="#5e5e5e" stroke-width="3" fill="#fff"/><use xlink:href="#i" transform="matrix(1,0,0,1,80.43307086614152,1541.5368926041597) translate(32.73456790123456 40.859722222222224)"/><use xlink:href="#j" transform="matrix(1,0,0,1,80.43307086614152,1541.5368926041597) translate(99.27777777777777 40.859722222222224)"/><path d="M513.43 1698.54c17.68 0 32 17.9 32 40s-14.32 40-32 40h-96c-17.67 0-32-17.9-32-40s14.33-40 32-40z" stroke="#5e5e5e" stroke-width="3" fill="#fff"/><use xlink:href="#k" transform="matrix(1,0,0,1,390.4330708661415,1703.5368926041594) translate(55.24691358024691 39.65277777777778)"/><path d="M135.43 1186a6 6 0 0 1 6-6h408a6 6 0 0 1 6 6v108a6 6 0 0 1-6 6h-408a6 6 0 0 1-6-6z" stroke="#5e5e5e" stroke-width="3" fill="#fff"/><use xlink:href="#l" transform="matrix(1,0,0,1,147.43307086614152,1192) translate(31.75225469135802 38.49336888888889)"/><use xlink:href="#m" transform="matrix(1,0,0,1,147.43307086614152,1192) translate(76.73086462962964 64.73342222222223)"/><use xlink:href="#n" transform="matrix(1,0,0,1,147.43307086614152,1192) translate(156.78732364197532 64.73342222222223)"/><use xlink:href="#o" transform="matrix(1,0,0,1,147.43307086614152,1192) translate(185.8821975925926 64.73342222222223)"/><path d="M1757.9 940h33a6 6 0 0 1 6 6v186.54a6 6 0 0 1-6 6H351.43a6 6 0 0 0-6 6v15.5" stroke="#5e5e5e" stroke-width="2" fill="none"/><path d="M1757.92 941h-1.02v-2h1.02z" stroke="#5e5e5e" stroke-width=".05" fill="#5e5e5e"/><path d="M345.43 1175.3l-4.63-14.27h9.27z" stroke="#5e5e5e" stroke-width="2" fill="#5e5e5e"/><path d="M836.85 1402a17 17 0 0 1 11.3 0l158.7 56a2.12 2.12 0 0 1 0 4l-158.7 56a17 17 0 0 1-11.3 0l-158.7-56a2.12 2.12 0 0 1 0-4z" stroke="#5e5e5e" stroke-width="3" fill="#fff"/><use xlink:href="#p" transform="matrix(1,0,0,1,677.5063879873893,1405) translate(40.3647466666667 58.74336888888889)"/><use xlink:href="#q" transform="matrix(1,0,0,1,677.5063879873893,1405) translate(172.59760802469137 58.74336888888889)"/><use xlink:href="#r" transform="matrix(1,0,0,1,677.5063879873893,1405) translate(191.42727592592593 58.74336888888889)"/><path d="M557.9 1240h52.17a6 6 0 0 1 6 6v208a6 6 0 0 0 6 6h34.67" stroke="#5e5e5e" stroke-width="2" fill="none"/><path d="M557.92 1241h-1.02v-2h1.02z" stroke="#5e5e5e" stroke-width=".05" fill="#5e5e5e"/><path d="M672 1460l-14.26 4.64v-9.28z" stroke="#5e5e5e" stroke-width="2" fill="#5e5e5e"/><path d="M1112.5 1406a6 6 0 0 1 6-6h268a6 6 0 0 1 6 6v108a6 6 0 0 1-6 6h-268a6 6 0 0 1-6-6z" stroke="#5e5e5e" stroke-width="3" fill="#fff"/><use xlink:href="#s" transform="matrix(1,0,0,1,1124.5063879873894,1412) translate(29.235354814814812 26.493368888888888)"/><use xlink:href="#t" transform="matrix(1,0,0,1,1124.5063879873894,1412) translate(29.690911296296292 52.733422222222224)"/><use xlink:href="#u" transform="matrix(1,0,0,1,1124.5063879873894,1412) translate(129.24518771604937 52.733422222222224)"/><use xlink:href="#v" transform="matrix(1,0,0,1,1124.5063879873894,1412) translate(203.2883011728395 52.733422222222224)"/><use xlink:href="#w" transform="matrix(1,0,0,1,1124.5063879873894,1412) translate(64.31320388888889 78.97347555555555)"/><path d="M692.5 1586a6 6 0 0 1 6-6h288a6 6 0 0 1 6 6v108a6 6 0 0 1-6 6h-288a6 6 0 0 1-6-6z" stroke="#5e5e5e" stroke-width="3" fill="#fff"/><use xlink:href="#x" transform="matrix(1,0,0,1,704.5063879873893,1592) translate(21.559763333333322 38.49336888888889)"/><use xlink:href="#y" transform="matrix(1,0,0,1,704.5063879873893,1592) translate(43.365733580246925 64.73342222222223)"/><use xlink:href="#z" transform="matrix(1,0,0,1,704.5063879873893,1592) translate(157.4978174074074 64.73342222222223)"/><path d="M1052 1461h-41.23v-2H1052zm40.54 0h-23.74v-2h23.74z" stroke="#5e5e5e" stroke-width=".05" fill="#5e5e5e"/><path d="M1010.8 1461h-1.18l.04-.12.1-.88-.1-.88-.04-.12h1.18z" fill="#5e5e5e"/><path d="M1010.82 1461.03h-1.24l.06-.15.1-.88-.1-.88-.06-.14h1.24zm-1.16-2l.03.08.1.9-.1.9-.04.07h1.1v-1.94z" stroke="#5e5e5e" stroke-width=".05" fill="#5e5e5e"/><path d="M1107.8 1460l-14.26 4.64v-9.28z" fill="#5e5e5e"/><path d="M1111.04 1460l-18.5 6v-12zm-16.5 3.26l10.03-3.26-10.03-3.26z" stroke="#5e5e5e" stroke-width=".05" fill="#5e5e5e"/><use xlink:href="#A" transform="matrix(1,0,0,1,1052.0127981533021,1449.3333333333333) translate(0.005000000000000782 14.222222222222223)"/><path d="M843.5 1538.84h-2v-17.37h2z" stroke="#5e5e5e" stroke-width=".05" fill="#5e5e5e"/><path d="M842.5 1520.47l1-.03v1.06h-2v-1.06z" fill="#5e5e5e"/><path d="M842.5 1520.45l1.03-.04v1.12h-2.05v-1.1zm-.97 1.02h1.95v-1l-.97.03-.97-.03z" stroke="#5e5e5e" stroke-width=".05" fill="#5e5e5e"/><path d="M842.5 1575.3l-4.63-14.27h9.27z" fill="#5e5e5e"/><path d="M842.5 1578.54l-5.96-18.37h11.93zm-3.25-16.5l3.26 10.02 3.27-10.03z" stroke="#5e5e5e" stroke-width=".05" fill="#5e5e5e"/><use xlink:href="#B" transform="matrix(1,0,0,1,830.7039188515869,1538.8383129033061) translate(0.005000000000000782 14.222222222222223)"/><path d="M1492.5 1406a6 6 0 0 1 6-6h268a6 6 0 0 1 6 6v108a6 6 0 0 1-6 6h-268a6 6 0 0 1-6-6z" stroke="#5e5e5e" stroke-width="3" fill="#fff"/><use xlink:href="#s" transform="matrix(1,0,0,1,1504.5063879873894,1412) translate(29.235354814814812 26.493368888888888)"/><use xlink:href="#t" transform="matrix(1,0,0,1,1504.5063879873894,1412) translate(29.690911296296292 52.733422222222224)"/><use xlink:href="#u" transform="matrix(1,0,0,1,1504.5063879873894,1412) translate(129.24518771604937 52.733422222222224)"/><use xlink:href="#v" transform="matrix(1,0,0,1,1504.5063879873894,1412) translate(203.2883011728395 52.733422222222224)"/><use xlink:href="#w" transform="matrix(1,0,0,1,1504.5063879873894,1412) translate(64.31320388888889 78.97347555555555)"/><path d="M1412.47 1460h60.07" stroke="#5e5e5e" stroke-width="2" fill="none"/><path d="M1397.2 1460l14.27-4.64v9.28zM1487.8 1460l-14.26 4.64v-9.28z" stroke="#5e5e5e" stroke-width="2" fill="#5e5e5e"/><path d="M692.5 1766a6 6 0 0 1 6-6h288a6 6 0 0 1 6 6v108a6 6 0 0 1-6 6h-288a6 6 0 0 1-6-6z" stroke="#5e5e5e" stroke-width="3" fill="#fff"/><use xlink:href="#C" transform="matrix(1,0,0,1,704.5063879873893,1772) translate(46.32592592592593 51.488888888888894)"/><path d="M842.5 1719.97v20.06" stroke="#5e5e5e" stroke-width="2" fill="none"/><path d="M842.5 1704.7l4.64 14.27h-9.27zM842.5 1755.3l-4.63-14.27h9.27z" stroke="#5e5e5e" stroke-width="2" fill="#5e5e5e"/><path d="M345.43 1302.46v100.8a6 6 0 0 0 6 6h108a6 6 0 0 1 6 6v83.3" stroke="#5e5e5e" stroke-width="2" fill="none"/><path d="M346.43 1302.5h-2v-1.04h2z" stroke="#5e5e5e" stroke-width=".05" fill="#5e5e5e"/><path d="M465.43 1513.84l-4.63-14.27h9.27z" stroke="#5e5e5e" stroke-width="2" fill="#5e5e5e"/><path d="M1252.5 1397.54V1246a6 6 0 0 0-6-6H575.4" stroke="#5e5e5e" stroke-width="2" fill="none"/><path d="M1253.5 1398.54h-2v-1.03h2z" stroke="#5e5e5e" stroke-width=".05" fill="#5e5e5e"/><path d="M560.13 1240l14.27-4.64v9.28z" stroke="#5e5e5e" stroke-width="2" fill="#5e5e5e"/><path d="M465.43 1641v37.53" stroke="#5e5e5e" stroke-width="2" fill="none"/><path d="M466.43 1641.03h-2V1640h2z" stroke="#5e5e5e" stroke-width=".05" fill="#5e5e5e"/><path d="M465.43 1693.8l-4.63-14.27h9.27z" stroke="#5e5e5e" stroke-width="2" fill="#5e5e5e"/><path d="M312.97 1578.54H275.4" stroke="#5e5e5e" stroke-width="2" fill="none"/><path d="M313.97 1579.54h-1.03v-2h1.03z" stroke="#5e5e5e" stroke-width=".05" fill="#5e5e5e"/><path d="M260.12 1578.54l14.27-4.64v9.27z" stroke="#5e5e5e" stroke-width="2" fill="#5e5e5e"/><path d="M740 297.42a6 6 0 0 1 6-6h288a6 6 0 0 1 6 6v108a6 6 0 0 1-6 6H746a6 6 0 0 1-6-6z" stroke="#5e5e5e" stroke-width="3" fill="#fff"/><use xlink:href="#D" transform="matrix(1,0,0,1,752,303.4173228346456) translate(15.424936049382723 53.49336888888889)"/><use xlink:href="#E" transform="matrix(1,0,0,1,752,303.4173228346456) translate(164.78672111111112 53.49336888888889)"/><path d="M622.46 351.42h97.57" stroke="#5e5e5e" stroke-width="2" fill="none"/><path d="M622.5 352.42h-1.04v-2h1.03z" stroke="#5e5e5e" stroke-width=".05" fill="#5e5e5e"/><path d="M735.3 351.42l-14.27 4.63v-9.27z" stroke="#5e5e5e" stroke-width="2" fill="#5e5e5e"/><path d="M622.46 351.42H699" stroke="#5e5e5e" stroke-width="2" fill="none"/><path d="M622.5 352.42h-1.04v-2h1.03z" stroke="#5e5e5e" stroke-width=".05" fill="#5e5e5e"/><path d="M698.97 351.42H700" stroke="#5e5e5e" stroke-width="2" fill="none"/><path d="M1100 297.42a6 6 0 0 1 6-6h288a6 6 0 0 1 6 6v108a6 6 0 0 1-6 6h-288a6 6 0 0 1-6-6z" stroke="#282c33" stroke-width="3" fill="#fff"/><use xlink:href="#F" transform="matrix(1,0,0,1,1112.0000000000002,303.4173228346456) translate(55.48353598765432 53.49336888888889)"/><path d="M1042.46 351.42h37.57" stroke="#5e5e5e" stroke-width="2" fill="none"/><path d="M1042.5 352.42h-1.04v-2h1.03z" stroke="#5e5e5e" stroke-width=".05" fill="#5e5e5e"/><path d="M1095.3 351.42l-14.27 4.63v-9.27z" stroke="#5e5e5e" stroke-width="2" fill="#5e5e5e"/><path d="M1250 413.88V549.7a6 6 0 0 1-6 6H941.43a6 6 0 0 0-6 6v135.84" stroke="#5e5e5e" stroke-width="2" fill="none"/><path d="M1251 413.9h-2v-1.02h2zM936.43 698.54h-2v-1.03h2z" stroke="#5e5e5e" stroke-width=".05" fill="#5e5e5e"/><path d="M1250 413.88V549.7a6 6 0 0 1-6 6h-217.8a6 6 0 0 0-6 6v135.83" stroke="#5e5e5e" stroke-width="2" fill="none"/><path d="M1251 413.9h-2v-1.02h2zM1021.2 698.53h-2v-1.02h2z" stroke="#5e5e5e" stroke-width=".05" fill="#5e5e5e"/><path d="M1250 413.88V549.7a6 6 0 0 1-6 6h-141.05a6 6 0 0 0-6 6v135.83" stroke="#5e5e5e" stroke-width="2" fill="none"/><path d="M1251 413.9h-2v-1.02h2zM1097.95 698.53h-2v-1.03h2z" stroke="#5e5e5e" stroke-width=".05" fill="#5e5e5e"/><path d="M1250 413.88V549.7a6 6 0 0 1-6 6H888.53a6 6 0 0 0-6 6v135.84" stroke="#5e5e5e" stroke-width="2" fill="none"/><path d="M1251 413.9h-2v-1.02h2zM883.53 698.54h-2v-1.03h2z" stroke="#5e5e5e" stroke-width=".05" fill="#5e5e5e"/><path d="M1250 413.88V549.7a6 6 0 0 1-6 6h-95.9a6 6 0 0 0-6 6v135.83" stroke="#5e5e5e" stroke-width="2" fill="none"/><path d="M1251 413.9h-2v-1.02h2zM1143.1 698.53h-2v-1.03h2z" stroke="#5e5e5e" stroke-width=".05" fill="#5e5e5e"/><defs><path fill="#333" d="M169-182c-1-43-94-46-97-3 18 66 151 10 154 114 3 95-165 93-204 36-6-8-10-19-12-30l50-8c3 46 112 56 116 5-17-69-150-10-154-114-4-87 153-88 188-35 5 8 8 18 10 28" id="G"/><path fill="#333" d="M115-3C79 11 28 4 28-45v-112H4v-33h27l15-45h31v45h36v33H77v99c-1 23 16 31 38 25v30" id="H"/><path fill="#333" d="M133-34C117-15 103 5 69 4 32 3 11-16 11-54c-1-60 55-63 116-61 1-26-3-47-28-47-18 1-26 9-28 27l-52-2c7-38 36-58 82-57s74 22 75 68l1 82c-1 14 12 18 25 15v27c-30 8-71 5-69-32zm-48 3c29 0 43-24 42-57-32 0-66-3-65 30 0 17 8 27 23 27" id="I"/><path fill="#333" d="M85 4C-2 5 27-109 22-190h50c7 57-23 150 33 157 60-5 35-97 40-157h50l1 190h-47c-2-12 1-28-3-38-12 25-28 42-61 42" id="J"/><path fill="#333" d="M137-138c1-29-70-34-71-4 15 46 118 7 119 86 1 83-164 76-172 9l43-7c4 19 20 25 44 25 33 8 57-30 24-41C81-84 22-81 20-136c-2-80 154-74 161-7" id="K"/><path fill="#333" d="M67-125c0 53 21 87 73 88 37 1 54-22 65-47l45 17C233-25 199 4 140 4 58 4 20-42 15-125 8-235 124-281 211-232c18 10 29 29 36 50l-46 12c-8-25-30-41-62-41-52 0-71 34-72 86" id="L"/><path fill="#333" d="M110-194c64 0 96 36 96 99 0 64-35 99-97 99-61 0-95-36-95-99 0-62 34-99 96-99zm-1 164c35 0 45-28 45-65 0-40-10-65-43-65-34 0-45 26-45 65 0 36 10 65 43 65" id="M"/><path fill="#333" d="M135-194c87-1 58 113 63 194h-50c-7-57 23-157-34-157-59 0-34 97-39 157H25l-1-190h47c2 12-1 28 3 38 12-26 28-41 61-42" id="N"/><path fill="#333" d="M220-157c-53 9-28 100-34 157h-49v-107c1-27-5-49-29-50C55-147 81-57 75 0H25l-1-190h47c2 12-1 28 3 38 10-53 101-56 108 0 13-22 24-43 59-42 82 1 51 116 57 194h-49v-107c-1-25-5-48-29-50" id="O"/><path fill="#333" d="M185-48c-13 30-37 53-82 52C43 2 14-33 14-96s30-98 90-98c62 0 83 45 84 108H66c0 31 8 55 39 56 18 0 30-7 34-22zm-45-69c5-46-57-63-70-21-2 6-4 13-4 21h74" id="P"/><path fill="#333" d="M135-150c-39-12-60 13-60 57V0H25l-1-190h47c2 13-1 29 3 40 6-28 27-53 61-41v41" id="Q"/><g id="a"><use transform="matrix(0.07407407407407407,0,0,0.07407407407407407,0,0)" xlink:href="#G"/><use transform="matrix(0.07407407407407407,0,0,0.07407407407407407,17.77777777777778,0)" xlink:href="#H"/><use transform="matrix(0.07407407407407407,0,0,0.07407407407407407,26.592592592592595,0)" xlink:href="#I"/><use transform="matrix(0.07407407407407407,0,0,0.07407407407407407,41.407407407407405,0)" xlink:href="#H"/><use transform="matrix(0.07407407407407407,0,0,0.07407407407407407,50.22222222222222,0)" xlink:href="#J"/><use transform="matrix(0.07407407407407407,0,0,0.07407407407407407,66.44444444444444,0)" xlink:href="#K"/><use transform="matrix(0.07407407407407407,0,0,0.07407407407407407,81.25925925925925,0)" xlink:href="#L"/><use transform="matrix(0.07407407407407407,0,0,0.07407407407407407,100.44444444444443,0)" xlink:href="#M"/><use transform="matrix(0.07407407407407407,0,0,0.07407407407407407,116.66666666666666,0)" xlink:href="#N"/><use transform="matrix(0.07407407407407407,0,0,0.07407407407407407,132.88888888888889,0)" xlink:href="#K"/><use transform="matrix(0.07407407407407407,0,0,0.07407407407407407,147.7037037037037,0)" xlink:href="#J"/><use transform="matrix(0.07407407407407407,0,0,0.07407407407407407,163.92592592592592,0)" xlink:href="#O"/><use transform="matrix(0.07407407407407407,0,0,0.07407407407407407,187.62962962962962,0)" xlink:href="#P"/><use transform="matrix(0.07407407407407407,0,0,0.07407407407407407,202.44444444444443,0)" xlink:href="#Q"/></g><path fill="#333" d="M185-189c-5-48-123-54-124 2 14 75 158 14 163 119 3 78-121 87-175 55-17-10-28-26-33-46l33-7c5 56 141 63 141-1 0-78-155-14-162-118-5-82 145-84 179-34 5 7 8 16 11 25" id="R"/><path fill="#333" d="M59-47c-2 24 18 29 38 22v24C64 9 27 4 27-40v-127H5v-23h24l9-43h21v43h35v23H59v120" id="S"/><path fill="#333" d="M141-36C126-15 110 5 73 4 37 3 15-17 15-53c-1-64 63-63 125-63 3-35-9-54-41-54-24 1-41 7-42 31l-33-3c5-37 33-52 76-52 45 0 72 20 72 64v82c-1 20 7 32 28 27v20c-31 9-61-2-59-35zM48-53c0 20 12 33 32 33 41-3 63-29 60-74-43 2-92-5-92 41" id="T"/><path fill="#333" d="M114-163C36-179 61-72 57 0H25l-1-190h30c1 12-1 29 2 39 6-27 23-49 58-41v29" id="U"/><g id="b"><use transform="matrix(0.06172839506172839,0,0,0.06172839506172839,0,0)" xlink:href="#R"/><use transform="matrix(0.06172839506172839,0,0,0.06172839506172839,14.814814814814813,0)" xlink:href="#S"/><use transform="matrix(0.06172839506172839,0,0,0.06172839506172839,20.98765432098765,0)" xlink:href="#T"/><use transform="matrix(0.06172839506172839,0,0,0.06172839506172839,33.33333333333333,0)" xlink:href="#U"/><use transform="matrix(0.06172839506172839,0,0,0.06172839506172839,40.679012345679006,0)" xlink:href="#S"/></g><path fill="#333" d="M63-220v92h138v28H63V0H30v-248h175v28H63" id="V"/><path fill="#333" d="M24-231v-30h32v30H24zM24 0v-190h32V0H24" id="W"/><path fill="#333" d="M24 0v-261h32V0H24" id="X"/><path fill="#333" d="M100-194c63 0 86 42 84 106H49c0 40 14 67 53 68 26 1 43-12 49-29l28 8c-11 28-37 45-77 45C44 4 14-33 15-96c1-61 26-98 85-98zm52 81c6-60-76-77-97-28-3 7-6 17-6 28h103" id="Y"/><path fill="#333" d="M266 0h-40l-56-210L115 0H75L2-248h35L96-30l15-64 43-154h32l59 218 59-218h35" id="Z"/><path fill="#333" d="M96-169c-40 0-48 33-48 73s9 75 48 75c24 0 41-14 43-38l32 2c-6 37-31 61-74 61-59 0-76-41-82-99-10-93 101-131 147-64 4 7 5 14 7 22l-32 3c-4-21-16-35-41-35" id="aa"/><path fill="#333" d="M106-169C34-169 62-67 57 0H25v-261h32l-1 103c12-21 28-36 61-36 89 0 53 116 60 194h-32v-121c2-32-8-49-39-48" id="ab"/><path fill="#333" d="M33-154v-36h34v36H33zM33 0v-36h34V0H33" id="ac"/><path fill="#333" d="M135-143c-3-34-86-38-87 0 15 53 115 12 119 90S17 21 10-45l28-5c4 36 97 45 98 0-10-56-113-15-118-90-4-57 82-63 122-42 12 7 21 19 24 35" id="ad"/><g id="c"><use transform="matrix(0.06074086419753086,0,0,0.06074086419753086,0,0)" xlink:href="#V"/><use transform="matrix(0.06074086419753086,0,0,0.06074086419753086,13.302249259259257,0)" xlink:href="#W"/><use transform="matrix(0.06074086419753086,0,0,0.06074086419753086,18.100777530864196,0)" xlink:href="#X"/><use transform="matrix(0.06074086419753086,0,0,0.06074086419753086,22.899305802469133,0)" xlink:href="#Y"/><use transform="matrix(0.06074086419753086,0,0,0.06074086419753086,35.0474786419753,0)" xlink:href="#Z"/><use transform="matrix(0.06074086419753086,0,0,0.06074086419753086,54.84900037037036,0)" xlink:href="#T"/><use transform="matrix(0.06074086419753086,0,0,0.06074086419753086,66.99717320987654,0)" xlink:href="#S"/><use transform="matrix(0.06074086419753086,0,0,0.06074086419753086,73.07125962962962,0)" xlink:href="#aa"/><use transform="matrix(0.06074086419753086,0,0,0.06074086419753086,84.00461518518517,0)" xlink:href="#ab"/><use transform="matrix(0.06074086419753086,0,0,0.06074086419753086,96.15278802469135,0)" xlink:href="#Y"/><use transform="matrix(0.06074086419753086,0,0,0.06074086419753086,108.30096086419752,0)" xlink:href="#U"/><use transform="matrix(0.06074086419753086,0,0,0.06074086419753086,115.52912370370369,0)" xlink:href="#ac"/><use transform="matrix(0.06074086419753086,0,0,0.06074086419753086,121.60321012345678,0)" xlink:href="#ac"/><use transform="matrix(0.06074086419753086,0,0,0.06074086419753086,127.67729654320986,0)" xlink:href="#ad"/><use transform="matrix(0.06074086419753086,0,0,0.06074086419753086,138.61065209876543,0)" xlink:href="#S"/><use transform="matrix(0.06074086419753086,0,0,0.06074086419753086,144.68473851851851,0)" xlink:href="#T"/><use transform="matrix(0.06074086419753086,0,0,0.06074086419753086,156.8329113580247,0)" xlink:href="#U"/><use transform="matrix(0.06074086419753086,0,0,0.06074086419753086,164.06107419753087,0)" xlink:href="#S"/></g><path d="M59-47c-2 24 18 29 38 22v24C64 9 27 4 27-40v-127H5v-23h24l9-43h21v43h35v23H59v120" id="ae"/><path d="M100-194c63 0 86 42 84 106H49c0 40 14 67 53 68 26 1 43-12 49-29l28 8c-11 28-37 45-77 45C44 4 14-33 15-96c1-61 26-98 85-98zm52 81c6-60-76-77-97-28-3 7-6 17-6 28h103" id="af"/><path d="M114-163C36-179 61-72 57 0H25l-1-190h30c1 12-1 29 2 39 6-27 23-49 58-41v29" id="ag"/><path d="M24-231v-30h32v30H24zM24 0v-190h32V0H24" id="ah"/><path d="M135-143c-3-34-86-38-87 0 15 53 115 12 119 90S17 21 10-45l28-5c4 36 97 45 98 0-10-56-113-15-118-90-4-57 82-63 122-42 12 7 21 19 24 35" id="ai"/><path d="M-5 72V49h209v23H-5" id="aj"/><path d="M141-36C126-15 110 5 73 4 37 3 15-17 15-53c-1-64 63-63 125-63 3-35-9-54-41-54-24 1-41 7-42 31l-33-3c5-37 33-52 76-52 45 0 72 20 72 64v82c-1 20 7 32 28 27v20c-31 9-61-2-59-35zM48-53c0 20 12 33 32 33 41-3 63-29 60-74-43 2-92-5-92 41" id="ak"/><path d="M33 0v-38h34V0H33" id="al"/><path d="M141 0L90-78 38 0H4l68-98-65-92h35l48 74 47-74h35l-64 92 68 98h-35" id="am"/><g id="d"><use transform="matrix(0.06049382716049383,0,0,0.06049382716049383,0,0)" xlink:href="#ae"/><use transform="matrix(0.06049382716049383,0,0,0.06049382716049383,6.049382716049383,0)" xlink:href="#af"/><use transform="matrix(0.06049382716049383,0,0,0.06049382716049383,18.14814814814815,0)" xlink:href="#ae"/><use transform="matrix(0.06049382716049383,0,0,0.06049382716049383,24.19753086419753,0)" xlink:href="#ag"/><use transform="matrix(0.06049382716049383,0,0,0.06049382716049383,31.396296296296295,0)" xlink:href="#ah"/><use transform="matrix(0.06049382716049383,0,0,0.06049382716049383,36.17530864197531,0)" xlink:href="#ai"/><use transform="matrix(0.06049382716049383,0,0,0.06049382716049383,47.064197530864206,0)" xlink:href="#aj"/><use transform="matrix(0.06049382716049383,0,0,0.06049382716049383,59.16296296296297,0)" xlink:href="#ai"/><use transform="matrix(0.06049382716049383,0,0,0.06049382716049383,70.05185185185186,0)" xlink:href="#ae"/><use transform="matrix(0.06049382716049383,0,0,0.06049382716049383,76.10123456790124,0)" xlink:href="#ak"/><use transform="matrix(0.06049382716049383,0,0,0.06049382716049383,88.20000000000002,0)" xlink:href="#ae"/><use transform="matrix(0.06049382716049383,0,0,0.06049382716049383,94.2493827160494,0)" xlink:href="#af"/><use transform="matrix(0.06049382716049383,0,0,0.06049382716049383,106.34814814814817,0)" xlink:href="#al"/><use transform="matrix(0.06049382716049383,0,0,0.06049382716049383,112.39753086419755,0)" xlink:href="#ae"/><use transform="matrix(0.06049382716049383,0,0,0.06049382716049383,118.44691358024693,0)" xlink:href="#am"/><use transform="matrix(0.06049382716049383,0,0,0.06049382716049383,129.3358024691358,0)" xlink:href="#ae"/></g><path fill="#282c33" d="M127-220V0H93v-220H8v-28h204v28h-85" id="an"/><path fill="#282c33" d="M100-194c63 0 86 42 84 106H49c0 40 14 67 53 68 26 1 43-12 49-29l28 8c-11 28-37 45-77 45C44 4 14-33 15-96c1-61 26-98 85-98zm52 81c6-60-76-77-97-28-3 7-6 17-6 28h103" id="ao"/><path fill="#282c33" d="M59-47c-2 24 18 29 38 22v24C64 9 27 4 27-40v-127H5v-23h24l9-43h21v43h35v23H59v120" id="ap"/><path fill="#282c33" d="M114-163C36-179 61-72 57 0H25l-1-190h30c1 12-1 29 2 39 6-27 23-49 58-41v29" id="aq"/><path fill="#282c33" d="M24-231v-30h32v30H24zM24 0v-190h32V0H24" id="ar"/><path fill="#282c33" d="M135-143c-3-34-86-38-87 0 15 53 115 12 119 90S17 21 10-45l28-5c4 36 97 45 98 0-10-56-113-15-118-90-4-57 82-63 122-42 12 7 21 19 24 35" id="as"/><path fill="#282c33" d="M185-189c-5-48-123-54-124 2 14 75 158 14 163 119 3 78-121 87-175 55-17-10-28-26-33-46l33-7c5 56 141 63 141-1 0-78-155-14-162-118-5-82 145-84 179-34 5 7 8 16 11 25" id="at"/><path fill="#282c33" d="M100-194c62-1 85 37 85 99 1 63-27 99-86 99S16-35 15-95c0-66 28-99 85-99zM99-20c44 1 53-31 53-75 0-43-8-75-51-75s-53 32-53 75 10 74 51 75" id="au"/><path fill="#282c33" d="M24 0v-261h32V0H24" id="av"/><path fill="#282c33" d="M108 0H70L1-190h34L89-25l56-165h34" id="aw"/><path fill="#282c33" d="M141-36C126-15 110 5 73 4 37 3 15-17 15-53c-1-64 63-63 125-63 3-35-9-54-41-54-24 1-41 7-42 31l-33-3c5-37 33-52 76-52 45 0 72 20 72 64v82c-1 20 7 32 28 27v20c-31 9-61-2-59-35zM48-53c0 20 12 33 32 33 41-3 63-29 60-74-43 2-92-5-92 41" id="ax"/><path fill="#282c33" d="M33-154v-36h34v36H33zM33 0v-36h34V0H33" id="ay"/><path fill="#282c33" d="M115-194c55 1 70 41 70 98S169 2 115 4C84 4 66-9 55-30l1 105H24l-1-265h31l2 30c10-21 28-34 59-34zm-8 174c40 0 45-34 45-75s-6-73-45-74c-42 0-51 32-51 76 0 43 10 73 51 73" id="az"/><path fill="#282c33" d="M179-190L93 31C79 59 56 82 12 73V49c39 6 53-20 64-50L1-190h34L92-34l54-156h33" id="aA"/><path fill="#282c33" d="M87 75C49 33 22-17 22-94c0-76 28-126 65-167h31c-38 41-64 92-64 168S80 34 118 75H87" id="aB"/><path fill="#282c33" d="M101-234c-31-9-42 10-38 44h38v23H63V0H32v-167H5v-23h27c-7-52 17-82 69-68v24" id="aC"/><path fill="#282c33" d="M33-261c38 41 65 92 65 168S71 34 33 75H2C39 34 66-17 66-93S39-220 2-261h31" id="aD"/><g id="e"><use transform="matrix(0.06074086419753086,0,0,0.06074086419753086,0,0)" xlink:href="#an"/><use transform="matrix(0.06074086419753086,0,0,0.06074086419753086,10.872614691358024,0)" xlink:href="#ao"/><use transform="matrix(0.06074086419753086,0,0,0.06074086419753086,23.020787530864197,0)" xlink:href="#ap"/><use transform="matrix(0.06074086419753086,0,0,0.06074086419753086,29.094873950617284,0)" xlink:href="#aq"/><use transform="matrix(0.06074086419753086,0,0,0.06074086419753086,36.32303679012345,0)" xlink:href="#ar"/><use transform="matrix(0.06074086419753086,0,0,0.06074086419753086,41.12156506172839,0)" xlink:href="#as"/><use transform="matrix(0.06074086419753086,0,0,0.06074086419753086,52.05492061728394,0)" xlink:href="#at"/><use transform="matrix(0.06074086419753086,0,0,0.06074086419753086,66.63272802469135,0)" xlink:href="#au"/><use transform="matrix(0.06074086419753086,0,0,0.06074086419753086,78.78090086419752,0)" xlink:href="#av"/><use transform="matrix(0.06074086419753086,0,0,0.06074086419753086,83.57942913580246,0)" xlink:href="#aw"/><use transform="matrix(0.06074086419753086,0,0,0.06074086419753086,94.51278469135801,0)" xlink:href="#ao"/><use transform="matrix(0.06074086419753086,0,0,0.06074086419753086,106.66095753086418,0)" xlink:href="#aq"/><use transform="matrix(0.06074086419753086,0,0,0.06074086419753086,113.88912037037035,0)" xlink:href="#at"/><use transform="matrix(0.06074086419753086,0,0,0.06074086419753086,128.46692777777776,0)" xlink:href="#ao"/><use transform="matrix(0.06074086419753086,0,0,0.06074086419753086,140.61510061728393,0)" xlink:href="#aq"/><use transform="matrix(0.06074086419753086,0,0,0.06074086419753086,147.8432634567901,0)" xlink:href="#ar"/><use transform="matrix(0.06074086419753086,0,0,0.06074086419753086,152.64179172839505,0)" xlink:href="#ax"/><use transform="matrix(0.06074086419753086,0,0,0.06074086419753086,164.78996456790122,0)" xlink:href="#av"/><use transform="matrix(0.06074086419753086,0,0,0.06074086419753086,169.58849283950616,0)" xlink:href="#ay"/><use transform="matrix(0.06074086419753086,0,0,0.06074086419753086,175.66257925925925,0)" xlink:href="#ay"/><use transform="matrix(0.06074086419753086,0,0,0.06074086419753086,181.73666567901233,0)" xlink:href="#az"/><use transform="matrix(0.06074086419753086,0,0,0.06074086419753086,193.8848385185185,0)" xlink:href="#av"/><use transform="matrix(0.06074086419753086,0,0,0.06074086419753086,198.68336679012344,0)" xlink:href="#ax"/><use transform="matrix(0.06074086419753086,0,0,0.06074086419753086,210.83153962962962,0)" xlink:href="#aA"/><use transform="matrix(0.06074086419753086,0,0,0.06074086419753086,221.76489518518517,0)" xlink:href="#aB"/><use transform="matrix(0.06074086419753086,0,0,0.06074086419753086,228.99305802469135,0)" xlink:href="#aC"/><use transform="matrix(0.06074086419753086,0,0,0.06074086419753086,235.06714444444444,0)" xlink:href="#ar"/><use transform="matrix(0.06074086419753086,0,0,0.06074086419753086,239.86567271604937,0)" xlink:href="#av"/><use transform="matrix(0.06074086419753086,0,0,0.06074086419753086,244.6642009876543,0)" xlink:href="#ao"/><use transform="matrix(0.06074086419753086,0,0,0.06074086419753086,256.81237382716046,0)" xlink:href="#aD"/></g><path fill="#282c33" d="M63-220v92h138v28H63V0H30v-248h175v28H63" id="aE"/><path fill="#282c33" d="M85-194c31 0 48 13 60 33l-1-100h32l1 261h-30c-2-10 0-23-3-31C134-8 116 4 85 4 32 4 16-35 15-94c0-66 23-100 70-100zm9 24c-40 0-46 34-46 75 0 40 6 74 45 74 42 0 51-32 51-76 0-42-9-74-50-73" id="aF"/><g id="f"><use transform="matrix(0.06074086419753086,0,0,0.06074086419753086,0,0)" xlink:href="#aE"/><use transform="matrix(0.06074086419753086,0,0,0.06074086419753086,13.302249259259257,0)" xlink:href="#ar"/><use transform="matrix(0.06074086419753086,0,0,0.06074086419753086,18.100777530864196,0)" xlink:href="#av"/><use transform="matrix(0.06074086419753086,0,0,0.06074086419753086,22.899305802469133,0)" xlink:href="#ao"/><use transform="matrix(0.06074086419753086,0,0,0.06074086419753086,35.0474786419753,0)" xlink:href="#aq"/><use transform="matrix(0.06074086419753086,0,0,0.06074086419753086,42.27564148148147,0)" xlink:href="#ay"/><use transform="matrix(0.06074086419753086,0,0,0.06074086419753086,48.34972790123456,0)" xlink:href="#ay"/><use transform="matrix(0.06074086419753086,0,0,0.06074086419753086,54.423814320987645,0)" xlink:href="#aq"/><use transform="matrix(0.06074086419753086,0,0,0.06074086419753086,61.651977160493814,0)" xlink:href="#ao"/><use transform="matrix(0.06074086419753086,0,0,0.06074086419753086,73.80014999999999,0)" xlink:href="#ax"/><use transform="matrix(0.06074086419753086,0,0,0.06074086419753086,85.94832283950616,0)" xlink:href="#aF"/><use transform="matrix(0.06074086419753086,0,0,0.06074086419753086,98.09649567901234,0)" xlink:href="#aB"/><use transform="matrix(0.06074086419753086,0,0,0.06074086419753086,105.3246585185185,0)" xlink:href="#aC"/><use transform="matrix(0.06074086419753086,0,0,0.06074086419753086,111.39874493827159,0)" xlink:href="#ar"/><use transform="matrix(0.06074086419753086,0,0,0.06074086419753086,116.19727320987653,0)" xlink:href="#av"/><use transform="matrix(0.06074086419753086,0,0,0.06074086419753086,120.99580148148146,0)" xlink:href="#ao"/><use transform="matrix(0.06074086419753086,0,0,0.06074086419753086,133.14397432098764,0)" xlink:href="#aD"/></g><path fill="#282c33" d="M33 0v-38h34V0H33" id="aG"/><path fill="#282c33" d="M177-190C167-65 218 103 67 71c-23-6-38-20-44-43l32-5c15 47 100 32 89-28v-30C133-14 115 1 83 1 29 1 15-40 15-95c0-56 16-97 71-98 29-1 48 16 59 35 1-10 0-23 2-32h30zM94-22c36 0 50-32 50-73 0-42-14-75-50-75-39 0-46 34-46 75s6 73 46 73" id="aH"/><path fill="#282c33" d="M160-131c35 5 61 23 61 61C221 17 115-2 30 0v-248c76 3 177-17 177 60 0 33-19 50-47 57zm-97-11c50-1 110 9 110-42 0-47-63-36-110-37v79zm0 115c55-2 124 14 124-45 0-56-70-42-124-44v89" id="aI"/><path fill="#282c33" d="M240 0l2-218c-23 76-54 145-80 218h-23L58-218 59 0H30v-248h44l77 211c21-75 51-140 76-211h43V0h-30" id="aJ"/><g id="g"><use transform="matrix(0.060740864197530844,0,0,0.060740864197530844,0,0)" xlink:href="#as"/><use transform="matrix(0.060740864197530844,0,0,0.060740864197530844,10.933355555555552,0)" xlink:href="#au"/><use transform="matrix(0.060740864197530844,0,0,0.060740864197530844,23.08152839506172,0)" xlink:href="#av"/><use transform="matrix(0.060740864197530844,0,0,0.060740864197530844,27.880056666666658,0)" xlink:href="#aw"/><use transform="matrix(0.060740864197530844,0,0,0.060740864197530844,38.81341222222221,0)" xlink:href="#ao"/><use transform="matrix(0.060740864197530844,0,0,0.060740864197530844,50.96158506172838,0)" xlink:href="#aq"/><use transform="matrix(0.060740864197530844,0,0,0.060740864197530844,56.97493061728393,0)" xlink:href="#aG"/><use transform="matrix(0.060740864197530844,0,0,0.060740864197530844,63.04901703703702,0)" xlink:href="#aH"/><use transform="matrix(0.060740864197530844,0,0,0.060740864197530844,75.19718987654319,0)" xlink:href="#ao"/><use transform="matrix(0.060740864197530844,0,0,0.060740864197530844,87.34536271604937,0)" xlink:href="#ap"/><use transform="matrix(0.060740864197530844,0,0,0.060740864197530844,93.41944913580245,0)" xlink:href="#aI"/><use transform="matrix(0.060740864197530844,0,0,0.060740864197530844,107.99725654320986,0)" xlink:href="#ao"/><use transform="matrix(0.060740864197530844,0,0,0.060740864197530844,120.14542938271603,0)" xlink:href="#as"/><use transform="matrix(0.060740864197530844,0,0,0.060740864197530844,131.07878493827158,0)" xlink:href="#ap"/><use transform="matrix(0.060740864197530844,0,0,0.060740864197530844,137.15287135802467,0)" xlink:href="#aJ"/><use transform="matrix(0.060740864197530844,0,0,0.060740864197530844,155.3143897530864,0)" xlink:href="#au"/><use transform="matrix(0.060740864197530844,0,0,0.060740864197530844,167.46256259259258,0)" xlink:href="#aw"/><use transform="matrix(0.060740864197530844,0,0,0.060740864197530844,178.39591814814813,0)" xlink:href="#ao"/><use transform="matrix(0.060740864197530844,0,0,0.060740864197530844,190.5440909876543,0)" xlink:href="#as"/><use transform="matrix(0.060740864197530844,0,0,0.060740864197530844,201.47744654320985,0)" xlink:href="#aB"/><use transform="matrix(0.060740864197530844,0,0,0.060740864197530844,208.70560938271603,0)" xlink:href="#aD"/></g><path fill="#282c33" d="M206 0h-36l-40-164L89 0H53L-1-190h32L70-26l43-164h34l41 164 42-164h31" id="aK"/><path fill="#282c33" d="M106-169C34-169 62-67 57 0H25v-261h32l-1 103c12-21 28-36 61-36 89 0 53 116 60 194h-32v-121c2-32-8-49-39-48" id="aL"/><g id="h"><use transform="matrix(0.06074086419753086,0,0,0.06074086419753086,0,0)" xlink:href="#aE"/><use transform="matrix(0.06074086419753086,0,0,0.06074086419753086,13.302249259259257,0)" xlink:href="#ar"/><use transform="matrix(0.06074086419753086,0,0,0.06074086419753086,18.100777530864196,0)" xlink:href="#av"/><use transform="matrix(0.06074086419753086,0,0,0.06074086419753086,22.899305802469133,0)" xlink:href="#ao"/><use transform="matrix(0.06074086419753086,0,0,0.06074086419753086,35.0474786419753,0)" xlink:href="#aq"/><use transform="matrix(0.06074086419753086,0,0,0.06074086419753086,42.27564148148147,0)" xlink:href="#ay"/><use transform="matrix(0.06074086419753086,0,0,0.06074086419753086,48.34972790123456,0)" xlink:href="#ay"/><use transform="matrix(0.06074086419753086,0,0,0.06074086419753086,54.423814320987645,0)" xlink:href="#aK"/><use transform="matrix(0.06074086419753086,0,0,0.06074086419753086,70.15569814814813,0)" xlink:href="#aq"/><use transform="matrix(0.06074086419753086,0,0,0.06074086419753086,77.3838609876543,0)" xlink:href="#ar"/><use transform="matrix(0.06074086419753086,0,0,0.06074086419753086,82.18238925925924,0)" xlink:href="#ap"/><use transform="matrix(0.06074086419753086,0,0,0.06074086419753086,88.25647567901233,0)" xlink:href="#ao"/><use transform="matrix(0.06074086419753086,0,0,0.06074086419753086,100.4046485185185,0)" xlink:href="#aB"/><use transform="matrix(0.06074086419753086,0,0,0.06074086419753086,107.63281135802467,0)" xlink:href="#aL"/><use transform="matrix(0.06074086419753086,0,0,0.06074086419753086,119.78098419753084,0)" xlink:href="#ar"/><use transform="matrix(0.06074086419753086,0,0,0.06074086419753086,124.57951246913579,0)" xlink:href="#as"/><use transform="matrix(0.06074086419753086,0,0,0.06074086419753086,135.51286802469133,0)" xlink:href="#ap"/><use transform="matrix(0.06074086419753086,0,0,0.06074086419753086,141.58695444444442,0)" xlink:href="#au"/><use transform="matrix(0.06074086419753086,0,0,0.06074086419753086,153.7351272839506,0)" xlink:href="#aq"/><use transform="matrix(0.06074086419753086,0,0,0.06074086419753086,160.96329012345677,0)" xlink:href="#aA"/><use transform="matrix(0.06074086419753086,0,0,0.06074086419753086,171.89664567901232,0)" xlink:href="#aD"/></g><path d="M100-194c62-1 85 37 85 99 1 63-27 99-86 99S16-35 15-95c0-66 28-99 85-99zM99-20c44 1 53-31 53-75 0-43-8-75-51-75s-53 32-53 75 10 74 51 75" id="aM"/><path d="M84 4C-5 8 30-112 23-190h32v120c0 31 7 50 39 49 72-2 45-101 50-169h31l1 190h-30c-1-10 1-25-2-33-11 22-28 36-60 37" id="aN"/><path d="M115-194c55 1 70 41 70 98S169 2 115 4C84 4 66-9 55-30l1 105H24l-1-265h31l2 30c10-21 28-34 59-34zm-8 174c40 0 45-34 45-75s-6-73-45-74c-42 0-51 32-51 76 0 43 10 73 51 73" id="aO"/><g id="i"><use transform="matrix(0.06049382716049383,0,0,0.06049382716049383,0,0)" xlink:href="#aM"/><use transform="matrix(0.06049382716049383,0,0,0.06049382716049383,12.098765432098766,0)" xlink:href="#aN"/><use transform="matrix(0.06049382716049383,0,0,0.06049382716049383,24.19753086419753,0)" xlink:href="#ae"/><use transform="matrix(0.06049382716049383,0,0,0.06049382716049383,30.246913580246915,0)" xlink:href="#aO"/><use transform="matrix(0.06049382716049383,0,0,0.06049382716049383,42.345679012345684,0)" xlink:href="#aN"/><use transform="matrix(0.06049382716049383,0,0,0.06049382716049383,54.44444444444445,0)" xlink:href="#ae"/></g><g id="j"><use transform="matrix(0.06049382716049383,0,0,0.06049382716049383,0,0)" xlink:href="#ae"/><use transform="matrix(0.06049382716049383,0,0,0.06049382716049383,6.049382716049383,0)" xlink:href="#am"/><use transform="matrix(0.06049382716049383,0,0,0.06049382716049383,16.938271604938272,0)" xlink:href="#ae"/></g><path fill="#333" d="M30 0v-248h187v28H63v79h144v27H63v87h162V0H30" id="aP"/><path fill="#333" d="M117-194c89-4 53 116 60 194h-32v-121c0-31-8-49-39-48C34-167 62-67 57 0H25l-1-190h30c1 10-1 24 2 32 11-22 29-35 61-36" id="aQ"/><path fill="#333" d="M85-194c31 0 48 13 60 33l-1-100h32l1 261h-30c-2-10 0-23-3-31C134-8 116 4 85 4 32 4 16-35 15-94c0-66 23-100 70-100zm9 24c-40 0-46 34-46 75 0 40 6 74 45 74 42 0 51-32 51-76 0-42-9-74-50-73" id="aR"/><g id="k"><use transform="matrix(0.06172839506172839,0,0,0.06172839506172839,0,0)" xlink:href="#aP"/><use transform="matrix(0.06172839506172839,0,0,0.06172839506172839,14.814814814814813,0)" xlink:href="#aQ"/><use transform="matrix(0.06172839506172839,0,0,0.06172839506172839,27.160493827160494,0)" xlink:href="#aR"/></g><path fill="#282c33" d="M117-194c89-4 53 116 60 194h-32v-121c0-31-8-49-39-48C34-167 62-67 57 0H25l-1-190h30c1 10-1 24 2 32 11-22 29-35 61-36" id="aS"/><path fill="#282c33" d="M30-248c87 1 191-15 191 75 0 78-77 80-158 76V0H30v-248zm33 125c57 0 124 11 124-50 0-59-68-47-124-48v98" id="aT"/><path fill="#282c33" d="M234-2c-28 10-62 0-77-18C117 19 8 12 13-65c3-43 29-61 60-76-25-40-17-114 47-108 35 3 59 15 59 50 0 44-40 53-71 69 14 26 32 50 51 72 14-21 24-43 30-72l26 8c-9 33-21 57-38 82 13 13 33 22 57 15v23zM97-151c25-10 52-18 56-48-1-18-13-29-33-29-42 0-39 50-23 77zM42-66c-3 51 71 58 98 28-20-24-41-51-56-80-23 10-40 24-42 52" id="aU"/><g id="l"><use transform="matrix(0.060740864197530844,0,0,0.060740864197530844,0,0)" xlink:href="#at"/><use transform="matrix(0.060740864197530844,0,0,0.060740864197530844,14.577807407407402,0)" xlink:href="#au"/><use transform="matrix(0.060740864197530844,0,0,0.060740864197530844,26.725980246913572,0)" xlink:href="#av"/><use transform="matrix(0.060740864197530844,0,0,0.060740864197530844,31.52450851851851,0)" xlink:href="#aw"/><use transform="matrix(0.060740864197530844,0,0,0.060740864197530844,42.45786407407406,0)" xlink:href="#ao"/><use transform="matrix(0.060740864197530844,0,0,0.060740864197530844,54.606036913580226,0)" xlink:href="#aq"/><use transform="matrix(0.060740864197530844,0,0,0.060740864197530844,61.834199753086395,0)" xlink:href="#ay"/><use transform="matrix(0.060740864197530844,0,0,0.060740864197530844,67.90828617283948,0)" xlink:href="#ay"/><use transform="matrix(0.060740864197530844,0,0,0.060740864197530844,73.98237259259257,0)" xlink:href="#aC"/><use transform="matrix(0.060740864197530844,0,0,0.060740864197530844,80.05645901234566,0)" xlink:href="#ar"/><use transform="matrix(0.060740864197530844,0,0,0.060740864197530844,84.85498728395059,0)" xlink:href="#aS"/><use transform="matrix(0.060740864197530844,0,0,0.060740864197530844,97.00316012345677,0)" xlink:href="#aF"/><use transform="matrix(0.060740864197530844,0,0,0.060740864197530844,109.15133296296294,0)" xlink:href="#aI"/><use transform="matrix(0.060740864197530844,0,0,0.060740864197530844,123.72914037037035,0)" xlink:href="#ao"/><use transform="matrix(0.060740864197530844,0,0,0.060740864197530844,135.87731320987652,0)" xlink:href="#as"/><use transform="matrix(0.060740864197530844,0,0,0.060740864197530844,146.81066876543207,0)" xlink:href="#ap"/><use transform="matrix(0.060740864197530844,0,0,0.060740864197530844,152.88475518518516,0)" xlink:href="#aJ"/><use transform="matrix(0.060740864197530844,0,0,0.060740864197530844,171.0462735802469,0)" xlink:href="#au"/><use transform="matrix(0.060740864197530844,0,0,0.060740864197530844,183.19444641975306,0)" xlink:href="#aw"/><use transform="matrix(0.060740864197530844,0,0,0.060740864197530844,194.1278019753086,0)" xlink:href="#ao"/><use transform="matrix(0.060740864197530844,0,0,0.060740864197530844,206.2759748148148,0)" xlink:href="#as"/><use transform="matrix(0.060740864197530844,0,0,0.060740864197530844,217.20933037037034,0)" xlink:href="#aB"/><use transform="matrix(0.06074086419753086,0,0,0.06074086419753086,224.43749320987652,0)" xlink:href="#aT"/><use transform="matrix(0.06074086419753086,0,0,0.06074086419753086,239.0153006172839,0)" xlink:href="#av"/><use transform="matrix(0.06074086419753086,0,0,0.06074086419753086,243.81382888888885,0)" xlink:href="#ax"/><use transform="matrix(0.06074086419753086,0,0,0.06074086419753086,255.96200172839502,0)" xlink:href="#aA"/><use transform="matrix(0.06074086419753086,0,0,0.06074086419753086,266.8953572839506,0)" xlink:href="#at"/><use transform="matrix(0.06074086419753086,0,0,0.06074086419753086,281.473164691358,0)" xlink:href="#ap"/><use transform="matrix(0.06074086419753086,0,0,0.06074086419753086,287.5472511111111,0)" xlink:href="#ax"/><use transform="matrix(0.06074086419753086,0,0,0.06074086419753086,299.6954239506173,0)" xlink:href="#ap"/><use transform="matrix(0.06074086419753086,0,0,0.06074086419753086,305.76951037037037,0)" xlink:href="#ao"/><use transform="matrix(0.06074086419753086,0,0,0.06074086419753086,317.91768320987654,0)" xlink:href="#aU"/></g><path fill="#282c33" d="M96-169c-40 0-48 33-48 73s9 75 48 75c24 0 41-14 43-38l32 2c-6 37-31 61-74 61-59 0-76-41-82-99-10-93 101-131 147-64 4 7 5 14 7 22l-32 3c-4-21-16-35-41-35" id="aV"/><path fill="#282c33" d="M84 4C-5 8 30-112 23-190h32v120c0 31 7 50 39 49 72-2 45-101 50-169h31l1 190h-30c-1-10 1-25-2-33-11 22-28 36-60 37" id="aW"/><path fill="#282c33" d="M68-38c1 34 0 65-14 84H32c9-13 17-26 17-46H33v-38h35" id="aX"/><g id="m"><use transform="matrix(0.06074086419753086,0,0,0.06074086419753086,0,0)" xlink:href="#aV"/><use transform="matrix(0.06074086419753086,0,0,0.06074086419753086,10.933355555555554,0)" xlink:href="#aW"/><use transform="matrix(0.06074086419753086,0,0,0.06074086419753086,23.081528395061724,0)" xlink:href="#aq"/><use transform="matrix(0.06074086419753086,0,0,0.06074086419753086,30.309691234567897,0)" xlink:href="#aq"/><use transform="matrix(0.06074086419753086,0,0,0.06074086419753086,37.53785407407407,0)" xlink:href="#ao"/><use transform="matrix(0.06074086419753086,0,0,0.06074086419753086,49.68602691358024,0)" xlink:href="#aS"/><use transform="matrix(0.06074086419753086,0,0,0.06074086419753086,61.834199753086416,0)" xlink:href="#ap"/><use transform="matrix(0.06074086419753086,0,0,0.06074086419753086,67.9082861728395,0)" xlink:href="#aX"/></g><g id="n"><use transform="matrix(0.06074086419753086,0,0,0.06074086419753086,0,0)" xlink:href="#ar"/><use transform="matrix(0.06074086419753086,0,0,0.06074086419753086,4.798528271604938,0)" xlink:href="#aS"/><use transform="matrix(0.06074086419753086,0,0,0.06074086419753086,16.94670111111111,0)" xlink:href="#ap"/></g><path fill="#282c33" d="M30-248c118-7 216 8 213 122C240-48 200 0 122 0H30v-248zM63-27c89 8 146-16 146-99s-60-101-146-95v194" id="aY"/><g id="o"><use transform="matrix(0.06074086419753086,0,0,0.06074086419753086,0,0)" xlink:href="#aV"/><use transform="matrix(0.06074086419753086,0,0,0.06074086419753086,10.933355555555554,0)" xlink:href="#aW"/><use transform="matrix(0.06074086419753086,0,0,0.06074086419753086,23.081528395061724,0)" xlink:href="#aq"/><use transform="matrix(0.06074086419753086,0,0,0.06074086419753086,30.309691234567897,0)" xlink:href="#aq"/><use transform="matrix(0.06074086419753086,0,0,0.06074086419753086,37.53785407407407,0)" xlink:href="#ao"/><use transform="matrix(0.06074086419753086,0,0,0.06074086419753086,49.68602691358024,0)" xlink:href="#aS"/><use transform="matrix(0.06074086419753086,0,0,0.06074086419753086,61.834199753086416,0)" xlink:href="#ap"/><use transform="matrix(0.06074086419753086,0,0,0.06074086419753086,67.9082861728395,0)" xlink:href="#aY"/><use transform="matrix(0.06074086419753086,0,0,0.06074086419753086,83.64016999999998,0)" xlink:href="#ao"/><use transform="matrix(0.06074086419753086,0,0,0.06074086419753086,95.78834283950616,0)" xlink:href="#az"/><use transform="matrix(0.06074086419753086,0,0,0.06074086419753086,107.93651567901233,0)" xlink:href="#ap"/><use transform="matrix(0.06074086419753086,0,0,0.06074086419753086,114.01060209876542,0)" xlink:href="#aL"/><use transform="matrix(0.060740864197530844,0,0,0.060740864197530844,126.15877493827159,0)" xlink:href="#aD"/></g><g id="p"><use transform="matrix(0.06074086419753086,0,0,0.06074086419753086,0,0)" xlink:href="#aV"/><use transform="matrix(0.06074086419753086,0,0,0.06074086419753086,10.933355555555554,0)" xlink:href="#aW"/><use transform="matrix(0.06074086419753086,0,0,0.06074086419753086,23.081528395061724,0)" xlink:href="#aq"/><use transform="matrix(0.06074086419753086,0,0,0.06074086419753086,30.309691234567897,0)" xlink:href="#aq"/><use transform="matrix(0.06074086419753086,0,0,0.06074086419753086,37.53785407407407,0)" xlink:href="#ao"/><use transform="matrix(0.06074086419753086,0,0,0.06074086419753086,49.68602691358024,0)" xlink:href="#aS"/><use transform="matrix(0.06074086419753086,0,0,0.06074086419753086,61.834199753086416,0)" xlink:href="#ap"/><use transform="matrix(0.06074086419753086,0,0,0.06074086419753086,67.9082861728395,0)" xlink:href="#aY"/><use transform="matrix(0.06074086419753086,0,0,0.06074086419753086,83.64016999999998,0)" xlink:href="#ao"/><use transform="matrix(0.06074086419753086,0,0,0.06074086419753086,95.78834283950616,0)" xlink:href="#az"/><use transform="matrix(0.06074086419753086,0,0,0.06074086419753086,107.93651567901233,0)" xlink:href="#ap"/><use transform="matrix(0.06074086419753086,0,0,0.06074086419753086,114.01060209876542,0)" xlink:href="#aL"/></g><path fill="#282c33" d="M18-100v-36l175-74v27L42-118l151 64v27" id="aZ"/><use transform="matrix(0.06074086419753086,0,0,0.06074086419753086,0,0)" xlink:href="#aZ" id="q"/><g id="r"><use transform="matrix(0.06074086419753086,0,0,0.06074086419753086,0,0)" xlink:href="#aC"/><use transform="matrix(0.06074086419753086,0,0,0.06074086419753086,6.074086419753086,0)" xlink:href="#ar"/><use transform="matrix(0.06074086419753086,0,0,0.06074086419753086,10.872614691358024,0)" xlink:href="#aS"/><use transform="matrix(0.06074086419753086,0,0,0.06074086419753086,23.020787530864197,0)" xlink:href="#ax"/><use transform="matrix(0.06074086419753086,0,0,0.06074086419753086,35.16896037037037,0)" xlink:href="#av"/><use transform="matrix(0.06074086419753086,0,0,0.06074086419753086,39.96748864197531,0)" xlink:href="#aY"/><use transform="matrix(0.06074086419753086,0,0,0.06074086419753086,55.6993724691358,0)" xlink:href="#ao"/><use transform="matrix(0.06074086419753086,0,0,0.06074086419753086,67.84754530864197,0)" xlink:href="#az"/><use transform="matrix(0.06074086419753086,0,0,0.06074086419753086,79.99571814814814,0)" xlink:href="#ap"/><use transform="matrix(0.06074086419753086,0,0,0.06074086419753086,86.06980456790123,0)" xlink:href="#aL"/></g><path fill="#282c33" d="M212-179c-10-28-35-45-73-45-59 0-87 40-87 99 0 60 29 101 89 101 43 0 62-24 78-52l27 14C228-24 195 4 139 4 59 4 22-46 18-125c-6-104 99-153 187-111 19 9 31 26 39 46" id="ba"/><g id="s"><use transform="matrix(0.06074086419753086,0,0,0.06074086419753086,0,0)" xlink:href="#at"/><use transform="matrix(0.06074086419753086,0,0,0.06074086419753086,14.577807407407406,0)" xlink:href="#au"/><use transform="matrix(0.06074086419753086,0,0,0.06074086419753086,26.72598024691358,0)" xlink:href="#av"/><use transform="matrix(0.06074086419753086,0,0,0.06074086419753086,31.524508518518516,0)" xlink:href="#aw"/><use transform="matrix(0.06074086419753086,0,0,0.06074086419753086,42.45786407407407,0)" xlink:href="#ao"/><use transform="matrix(0.06074086419753086,0,0,0.06074086419753086,54.60603691358024,0)" xlink:href="#aq"/><use transform="matrix(0.06074086419753086,0,0,0.06074086419753086,61.83419975308641,0)" xlink:href="#ay"/><use transform="matrix(0.06074086419753086,0,0,0.06074086419753086,67.9082861728395,0)" xlink:href="#ay"/><use transform="matrix(0.06074086419753086,0,0,0.06074086419753086,73.98237259259258,0)" xlink:href="#aC"/><use transform="matrix(0.06074086419753086,0,0,0.06074086419753086,80.05645901234567,0)" xlink:href="#ar"/><use transform="matrix(0.06074086419753086,0,0,0.06074086419753086,84.8549872839506,0)" xlink:href="#aS"/><use transform="matrix(0.06074086419753086,0,0,0.06074086419753086,97.00316012345678,0)" xlink:href="#aF"/><use transform="matrix(0.06074086419753086,0,0,0.06074086419753086,109.15133296296295,0)" xlink:href="#ba"/><use transform="matrix(0.06074086419753086,0,0,0.06074086419753086,124.88321679012344,0)" xlink:href="#aL"/><use transform="matrix(0.06074086419753086,0,0,0.06074086419753086,137.03138962962962,0)" xlink:href="#ar"/><use transform="matrix(0.06074086419753086,0,0,0.06074086419753086,141.82991790123455,0)" xlink:href="#av"/><use transform="matrix(0.06074086419753086,0,0,0.06074086419753086,146.6284461728395,0)" xlink:href="#aF"/><use transform="matrix(0.06074086419753086,0,0,0.06074086419753086,158.77661901234566,0)" xlink:href="#aq"/><use transform="matrix(0.06074086419753086,0,0,0.06074086419753086,166.00478185185185,0)" xlink:href="#ao"/><use transform="matrix(0.06074086419753086,0,0,0.06074086419753086,178.15295469135802,0)" xlink:href="#aS"/><use transform="matrix(0.06074086419753086,0,0,0.06074086419753086,190.3011275308642,0)" xlink:href="#aB"/></g><g id="t"><use transform="matrix(0.06074086419753086,0,0,0.06074086419753086,0,0)" xlink:href="#aT"/><use transform="matrix(0.06074086419753086,0,0,0.06074086419753086,14.577807407407406,0)" xlink:href="#av"/><use transform="matrix(0.06074086419753086,0,0,0.06074086419753086,19.376335679012342,0)" xlink:href="#ax"/><use transform="matrix(0.06074086419753086,0,0,0.06074086419753086,31.524508518518516,0)" xlink:href="#aA"/><use transform="matrix(0.06074086419753086,0,0,0.06074086419753086,42.45786407407407,0)" xlink:href="#at"/><use transform="matrix(0.06074086419753086,0,0,0.06074086419753086,57.03567148148147,0)" xlink:href="#ap"/><use transform="matrix(0.06074086419753086,0,0,0.06074086419753086,63.10975790123456,0)" xlink:href="#ax"/><use transform="matrix(0.06074086419753086,0,0,0.06074086419753086,75.25793074074073,0)" xlink:href="#ap"/><use transform="matrix(0.06074086419753086,0,0,0.06074086419753086,81.33201716049382,0)" xlink:href="#ao"/></g><g id="u"><use transform="matrix(0.06074086419753086,0,0,0.06074086419753086,0,0)" xlink:href="#az"/><use transform="matrix(0.06074086419753086,0,0,0.06074086419753086,12.148172839506172,0)" xlink:href="#ax"/><use transform="matrix(0.06074086419753086,0,0,0.06074086419753086,24.296345679012344,0)" xlink:href="#aq"/><use transform="matrix(0.06074086419753086,0,0,0.06074086419753086,31.524508518518516,0)" xlink:href="#ao"/><use transform="matrix(0.06074086419753086,0,0,0.06074086419753086,43.67268135802469,0)" xlink:href="#aS"/><use transform="matrix(0.06074086419753086,0,0,0.06074086419753086,55.82085419753086,0)" xlink:href="#ap"/><use transform="matrix(0.06074086419753086,0,0,0.06074086419753086,61.89494061728395,0)" xlink:href="#aX"/></g><g id="v"><use transform="matrix(0.06074086419753086,0,0,0.06074086419753086,0,0)" xlink:href="#ar"/><use transform="matrix(0.06074086419753086,0,0,0.06074086419753086,4.798528271604938,0)" xlink:href="#aS"/><use transform="matrix(0.06074086419753086,0,0,0.06074086419753086,16.94670111111111,0)" xlink:href="#ap"/></g><g id="w"><use transform="matrix(0.06074086419753086,0,0,0.06074086419753086,0,0)" xlink:href="#az"/><use transform="matrix(0.06074086419753086,0,0,0.06074086419753086,12.148172839506172,0)" xlink:href="#ax"/><use transform="matrix(0.06074086419753086,0,0,0.06074086419753086,24.296345679012344,0)" xlink:href="#aq"/><use transform="matrix(0.06074086419753086,0,0,0.06074086419753086,31.524508518518516,0)" xlink:href="#ao"/><use transform="matrix(0.06074086419753086,0,0,0.06074086419753086,43.67268135802469,0)" xlink:href="#aS"/><use transform="matrix(0.06074086419753086,0,0,0.06074086419753086,55.82085419753086,0)" xlink:href="#ap"/><use transform="matrix(0.06074086419753086,0,0,0.06074086419753086,61.89494061728395,0)" xlink:href="#aY"/><use transform="matrix(0.06074086419753086,0,0,0.06074086419753086,77.62682444444444,0)" xlink:href="#ao"/><use transform="matrix(0.06074086419753086,0,0,0.06074086419753086,89.77499728395061,0)" xlink:href="#az"/><use transform="matrix(0.06074086419753086,0,0,0.06074086419753086,101.92317012345679,0)" xlink:href="#ap"/><use transform="matrix(0.06074086419753086,0,0,0.06074086419753086,107.99725654320987,0)" xlink:href="#aL"/><use transform="matrix(0.06074086419753086,0,0,0.06074086419753086,120.14542938271605,0)" xlink:href="#aD"/></g><path fill="#282c33" d="M210-169c-67 3-38 105-44 169h-31v-121c0-29-5-50-35-48C34-165 62-65 56 0H25l-1-190h30c1 10-1 24 2 32 10-44 99-50 107 0 11-21 27-35 58-36 85-2 47 119 55 194h-31v-121c0-29-5-49-35-48" id="bb"/><g id="x"><use transform="matrix(0.06074086419753086,0,0,0.06074086419753086,0,0)" xlink:href="#at"/><use transform="matrix(0.06074086419753086,0,0,0.06074086419753086,14.577807407407406,0)" xlink:href="#au"/><use transform="matrix(0.06074086419753086,0,0,0.06074086419753086,26.72598024691358,0)" xlink:href="#av"/><use transform="matrix(0.06074086419753086,0,0,0.06074086419753086,31.524508518518516,0)" xlink:href="#aw"/><use transform="matrix(0.06074086419753086,0,0,0.06074086419753086,42.45786407407407,0)" xlink:href="#ao"/><use transform="matrix(0.06074086419753086,0,0,0.06074086419753086,54.60603691358024,0)" xlink:href="#aq"/><use transform="matrix(0.06074086419753086,0,0,0.06074086419753086,61.83419975308641,0)" xlink:href="#ay"/><use transform="matrix(0.06074086419753086,0,0,0.06074086419753086,67.9082861728395,0)" xlink:href="#ay"/><use transform="matrix(0.06074086419753086,0,0,0.06074086419753086,73.98237259259258,0)" xlink:href="#aV"/><use transform="matrix(0.06074086419753086,0,0,0.06074086419753086,84.91572814814813,0)" xlink:href="#au"/><use transform="matrix(0.06074086419753086,0,0,0.06074086419753086,97.0639009876543,0)" xlink:href="#bb"/><use transform="matrix(0.06074086419753086,0,0,0.06074086419753086,115.22541938271604,0)" xlink:href="#az"/><use transform="matrix(0.06074086419753086,0,0,0.06074086419753086,127.37359222222221,0)" xlink:href="#ax"/><use transform="matrix(0.06074086419753086,0,0,0.06074086419753086,139.5217650617284,0)" xlink:href="#aq"/><use transform="matrix(0.06074086419753086,0,0,0.06074086419753086,146.74992790123457,0)" xlink:href="#ao"/><use transform="matrix(0.06074086419753086,0,0,0.06074086419753086,158.89810074074074,0)" xlink:href="#an"/><use transform="matrix(0.06074086419753086,0,0,0.06074086419753086,169.77071543209877,0)" xlink:href="#au"/><use transform="matrix(0.06074086419753086,0,0,0.06074086419753086,181.91888827160494,0)" xlink:href="#aI"/><use transform="matrix(0.06074086419753086,0,0,0.06074086419753086,196.49669567901236,0)" xlink:href="#ao"/><use transform="matrix(0.06074086419753086,0,0,0.06074086419753086,208.64486851851854,0)" xlink:href="#as"/><use transform="matrix(0.06074086419753086,0,0,0.06074086419753086,219.5782240740741,0)" xlink:href="#ap"/><use transform="matrix(0.06074086419753086,0,0,0.06074086419753086,225.65231049382717,0)" xlink:href="#aB"/></g><g id="y"><use transform="matrix(0.06074086419753086,0,0,0.06074086419753086,0,0)" xlink:href="#aT"/><use transform="matrix(0.06074086419753086,0,0,0.06074086419753086,14.577807407407406,0)" xlink:href="#av"/><use transform="matrix(0.06074086419753086,0,0,0.06074086419753086,19.376335679012342,0)" xlink:href="#ax"/><use transform="matrix(0.06074086419753086,0,0,0.06074086419753086,31.524508518518516,0)" xlink:href="#aA"/><use transform="matrix(0.06074086419753086,0,0,0.06074086419753086,42.45786407407407,0)" xlink:href="#at"/><use transform="matrix(0.06074086419753086,0,0,0.06074086419753086,57.03567148148147,0)" xlink:href="#ap"/><use transform="matrix(0.06074086419753086,0,0,0.06074086419753086,63.10975790123456,0)" xlink:href="#ax"/><use transform="matrix(0.06074086419753086,0,0,0.06074086419753086,75.25793074074073,0)" xlink:href="#ap"/><use transform="matrix(0.06074086419753086,0,0,0.06074086419753086,81.33201716049382,0)" xlink:href="#ao"/><use transform="matrix(0.06074086419753086,0,0,0.06074086419753086,93.48019,0)" xlink:href="#aU"/></g><g id="z"><use transform="matrix(0.06074086419753086,0,0,0.06074086419753086,0,0)" xlink:href="#aV"/><use transform="matrix(0.06074086419753086,0,0,0.06074086419753086,10.933355555555554,0)" xlink:href="#aW"/><use transform="matrix(0.06074086419753086,0,0,0.06074086419753086,23.081528395061724,0)" xlink:href="#aq"/><use transform="matrix(0.06074086419753086,0,0,0.06074086419753086,30.309691234567897,0)" xlink:href="#aq"/><use transform="matrix(0.06074086419753086,0,0,0.06074086419753086,37.53785407407407,0)" xlink:href="#ao"/><use transform="matrix(0.06074086419753086,0,0,0.06074086419753086,49.68602691358024,0)" xlink:href="#aS"/><use transform="matrix(0.06074086419753086,0,0,0.06074086419753086,61.834199753086416,0)" xlink:href="#ap"/><use transform="matrix(0.06074086419753086,0,0,0.06074086419753086,67.9082861728395,0)" xlink:href="#aD"/></g><path fill="#333" d="M25 0v-190h50V0H25zm-5-208v-5l45-51h45v8l-60 48H20" id="bc"/><g id="A"><use transform="matrix(0.04938271604938272,0,0,0.04938271604938272,0,0)" xlink:href="#G"/><use transform="matrix(0.04938271604938272,0,0,0.04938271604938272,11.851851851851853,0)" xlink:href="#bc"/></g><path fill="#333" d="M175 0L67-191c6 58 2 128 3 191H24v-248h59L193-55c-6-58-2-129-3-193h46V0h-61" id="bd"/><g id="B"><use transform="matrix(0.04938271604938272,0,0,0.04938271604938272,0,0)" xlink:href="#bd"/><use transform="matrix(0.04938271604938272,0,0,0.04938271604938272,12.790123456790125,0)" xlink:href="#M"/></g><g id="C"><use transform="matrix(0.06419753086419754,0,0,0.06419753086419754,0,0)" xlink:href="#aT"/><use transform="matrix(0.06419753086419754,0,0,0.06419753086419754,15.407407407407408,0)" xlink:href="#av"/><use transform="matrix(0.06419753086419754,0,0,0.06419753086419754,20.479012345679013,0)" xlink:href="#ax"/><use transform="matrix(0.06419753086419754,0,0,0.06419753086419754,33.318518518518516,0)" xlink:href="#aA"/><use transform="matrix(0.06419753086419754,0,0,0.06419753086419754,44.87407407407407,0)" xlink:href="#at"/><use transform="matrix(0.06419753086419754,0,0,0.06419753086419754,60.28148148148148,0)" xlink:href="#ap"/><use transform="matrix(0.06419753086419754,0,0,0.06419753086419754,66.70123456790122,0)" xlink:href="#ax"/><use transform="matrix(0.06419753086419754,0,0,0.06419753086419754,79.54074074074073,0)" xlink:href="#ap"/><use transform="matrix(0.06419753086419754,0,0,0.06419753086419754,85.96049382716049,0)" xlink:href="#ao"/><use transform="matrix(0.06419753086419754,0,0,0.06419753086419754,98.8,0)" xlink:href="#ay"/><use transform="matrix(0.06419753086419754,0,0,0.06419753086419754,105.21975308641976,0)" xlink:href="#ay"/><use transform="matrix(0.06419753086419754,0,0,0.06419753086419754,111.6395061728395,0)" xlink:href="#as"/><use transform="matrix(0.06419753086419754,0,0,0.06419753086419754,123.19506172839506,0)" xlink:href="#aV"/><use transform="matrix(0.06419753086419754,0,0,0.06419753086419754,134.75061728395062,0)" xlink:href="#au"/><use transform="matrix(0.06419753086419754,0,0,0.06419753086419754,147.59012345679014,0)" xlink:href="#aq"/><use transform="matrix(0.06419753086419754,0,0,0.06419753086419754,155.22962962962964,0)" xlink:href="#ao"/><use transform="matrix(0.06419753086419754,0,0,0.06419753086419754,168.06913580246916,0)" xlink:href="#aB"/><use transform="matrix(0.06419753086419754,0,0,0.06419753086419754,175.70864197530864,0)" xlink:href="#aD"/></g><g id="D"><use transform="matrix(0.06074086419753086,0,0,0.06074086419753086,0,0)" xlink:href="#at"/><use transform="matrix(0.06074086419753086,0,0,0.06074086419753086,14.577807407407406,0)" xlink:href="#ap"/><use transform="matrix(0.06074086419753086,0,0,0.06074086419753086,20.651893827160492,0)" xlink:href="#ax"/><use transform="matrix(0.06074086419753086,0,0,0.06074086419753086,32.800066666666666,0)" xlink:href="#ap"/><use transform="matrix(0.06074086419753086,0,0,0.06074086419753086,38.87415308641975,0)" xlink:href="#aW"/><use transform="matrix(0.06074086419753086,0,0,0.06074086419753086,51.02232592592593,0)" xlink:href="#as"/><use transform="matrix(0.06074086419753086,0,0,0.06074086419753086,61.95568148148148,0)" xlink:href="#aT"/><use transform="matrix(0.06074086419753086,0,0,0.06074086419753086,76.53348888888888,0)" xlink:href="#aq"/><use transform="matrix(0.06074086419753086,0,0,0.06074086419753086,83.76165172839505,0)" xlink:href="#au"/><use transform="matrix(0.06074086419753086,0,0,0.06074086419753086,95.90982456790123,0)" xlink:href="#aF"/><use transform="matrix(0.06074086419753086,0,0,0.06074086419753086,108.0579974074074,0)" xlink:href="#aW"/><use transform="matrix(0.06074086419753086,0,0,0.06074086419753086,120.20617024691357,0)" xlink:href="#aV"/><use transform="matrix(0.06074086419753086,0,0,0.06074086419753086,131.13952580246914,0)" xlink:href="#ao"/></g><g id="E"><use transform="matrix(0.06074086419753086,0,0,0.06074086419753086,0,0)" xlink:href="#aB"/><use transform="matrix(0.06074086419753086,0,0,0.06074086419753086,7.228162839506172,0)" xlink:href="#aT"/><use transform="matrix(0.06074086419753086,0,0,0.06074086419753086,21.805970246913578,0)" xlink:href="#aq"/><use transform="matrix(0.06074086419753086,0,0,0.06074086419753086,29.03413308641975,0)" xlink:href="#au"/><use transform="matrix(0.06074086419753086,0,0,0.06074086419753086,41.182305925925924,0)" xlink:href="#aF"/><use transform="matrix(0.06074086419753086,0,0,0.06074086419753086,53.3304787654321,0)" xlink:href="#aW"/><use transform="matrix(0.06074086419753086,0,0,0.06074086419753086,65.47865160493826,0)" xlink:href="#aV"/><use transform="matrix(0.06074086419753086,0,0,0.06074086419753086,76.41200716049381,0)" xlink:href="#ao"/><use transform="matrix(0.06074086419753086,0,0,0.06074086419753086,88.56017999999999,0)" xlink:href="#aD"/></g><path fill="#282c33" d="M205 0l-28-72H64L36 0H1l101-248h38L239 0h-34zm-38-99l-47-123c-12 45-31 82-46 123h93" id="be"/><path fill="#282c33" d="M115-194c53 0 69 39 70 98 0 66-23 100-70 100C84 3 66-7 56-30L54 0H23l1-261h32v101c10-23 28-34 59-34zm-8 174c40 0 45-34 45-75 0-40-5-75-45-74-42 0-51 32-51 76 0 43 10 73 51 73" id="bf"/><g id="F"><use transform="matrix(0.06074086419753086,0,0,0.06074086419753086,0,0)" xlink:href="#at"/><use transform="matrix(0.06074086419753086,0,0,0.06074086419753086,14.577807407407406,0)" xlink:href="#ap"/><use transform="matrix(0.06074086419753086,0,0,0.06074086419753086,20.651893827160492,0)" xlink:href="#ax"/><use transform="matrix(0.06074086419753086,0,0,0.06074086419753086,32.800066666666666,0)" xlink:href="#ap"/><use transform="matrix(0.06074086419753086,0,0,0.06074086419753086,38.87415308641975,0)" xlink:href="#aW"/><use transform="matrix(0.06074086419753086,0,0,0.06074086419753086,51.02232592592593,0)" xlink:href="#as"/><use transform="matrix(0.06074086419753086,0,0,0.06074086419753086,61.95568148148148,0)" xlink:href="#be"/><use transform="matrix(0.06074086419753086,0,0,0.06074086419753086,76.53348888888888,0)" xlink:href="#as"/><use transform="matrix(0.06074086419753086,0,0,0.06074086419753086,87.46684444444443,0)" xlink:href="#as"/><use transform="matrix(0.06074086419753086,0,0,0.06074086419753086,98.40019999999998,0)" xlink:href="#ao"/><use transform="matrix(0.06074086419753086,0,0,0.06074086419753086,110.54837283950616,0)" xlink:href="#bb"/><use transform="matrix(0.06074086419753086,0,0,0.06074086419753086,128.7098912345679,0)" xlink:href="#bf"/><use transform="matrix(0.06074086419753086,0,0,0.06074086419753086,140.85806407407406,0)" xlink:href="#av"/><use transform="matrix(0.06074086419753086,0,0,0.06074086419753086,145.656592345679,0)" xlink:href="#ao"/><use transform="matrix(0.06074086419753086,0,0,0.06074086419753086,157.80476518518518,0)" xlink:href="#aq"/></g></defs></g></svg>